<svg width="18" height="18" viewBox="0 0 18 18" fill="none" xmlns="http://www.w3.org/2000/svg">
<path d="M8.99984 0.666748C4.39984 0.666748 0.666504 4.40008 0.666504 9.00008C0.666504 13.6001 4.39984 17.3334 8.99984 17.3334C13.5998 17.3334 17.3332 13.6001 17.3332 9.00008C17.3332 4.40008 13.5998 0.666748 8.99984 0.666748ZM10.1748 14.0751V14.5584C10.1748 15.1667 9.67484 15.6667 9.0665 15.6667H9.05817C8.44984 15.6667 7.94984 15.1667 7.94984 14.5584V14.0584C6.8415 13.8251 5.85817 13.2167 5.4415 12.1917C5.24984 11.7334 5.60817 11.2251 6.10817 11.2251H6.30817C6.6165 11.2251 6.8665 11.4334 6.98317 11.7251C7.22484 12.3501 7.85817 12.7834 9.07484 12.7834C10.7082 12.7834 11.0748 11.9667 11.0748 11.4584C11.0748 10.7667 10.7082 10.1167 8.84984 9.67508C6.78317 9.17508 5.3665 8.32508 5.3665 6.61675C5.3665 5.18341 6.52484 4.25008 7.95817 3.94175V3.44175C7.95817 2.83341 8.45817 2.33341 9.0665 2.33341H9.07484C9.68317 2.33341 10.1832 2.83341 10.1832 3.44175V3.95841C11.3332 4.24175 12.0582 4.95841 12.3748 5.84175C12.5415 6.30008 12.1915 6.78341 11.6998 6.78341H11.4832C11.1748 6.78341 10.9248 6.56675 10.8415 6.26675C10.6498 5.63341 10.1248 5.22508 9.07484 5.22508C7.82484 5.22508 7.07484 5.79175 7.07484 6.59175C7.07484 7.29175 7.6165 7.75008 9.29984 8.18341C10.9832 8.61675 12.7832 9.34175 12.7832 11.4417C12.7665 12.9667 11.6248 13.8001 10.1748 14.0751Z" fill="#73A7FF"/>
</svg>
