<svg width="14" height="17" viewBox="0 0 14 17" fill="none" xmlns="http://www.w3.org/2000/svg">
<path d="M12.6562 9.78125L4.65625 16.7812C4.46875 16.9375 4.21875 17 4 17C3.78125 17 3.5625 16.9375 3.40625 16.8125C3.03125 16.5625 2.875 16.0625 3.0625 15.625L5.46875 10.0312H2C1.5625 10.0312 1.1875 9.75 1.0625 9.375C0.90625 8.96875 1 8.53125 1.3125 8.25L9.3125 1.25C9.6875 0.96875 10.1875 0.9375 10.5625 1.21875C10.9375 1.46875 11.0938 1.96875 10.9062 2.40625L8.5 8.03125H11.9688C12.4062 8.03125 12.7812 8.28125 12.9062 8.65625C13.0625 9.0625 12.9688 9.5 12.6562 9.78125Z" fill="#FF5323"/>
</svg>
