<svg width="336" height="345" viewBox="0 0 336 345" fill="none" xmlns="http://www.w3.org/2000/svg">
<path d="M189.785 35.4973V50.5872C189.785 100.673 169.374 148.596 133.26 183.301C127.587 188.753 118.621 188.753 112.948 183.301C76.8347 148.597 56.4234 100.673 56.4233 50.5874V35.4974L123.104 4.49219L189.785 35.4973Z" fill="#F0F0FA"/>
<path d="M189.056 35.4973C189.056 41.2029 189.107 46.9112 189.045 52.6167C188.762 78.2181 183.12 103.476 172.484 126.765C167.184 138.351 160.698 149.355 153.129 159.602C149.324 164.749 145.25 169.691 140.925 174.408C138.745 176.788 136.503 179.109 134.2 181.372C132.121 183.415 130.024 185.193 127.178 186.055C124.44 186.881 121.516 186.855 118.793 185.98C115.952 185.067 113.884 183.22 111.802 181.168C107.215 176.648 102.868 171.889 98.7794 166.914C74.316 137.106 59.871 100.346 57.4978 61.8588C57.0096 53.904 57.1527 45.9221 57.1527 37.9565V35.4973L56.7916 36.1268L63.4283 33.0408L79.3642 25.631L98.5604 16.7051L115.237 8.95096L120.756 6.38469C121.578 6.00239 122.607 5.69424 123.356 5.17576C123.393 5.15463 123.432 5.13654 123.472 5.12166H122.736L129.373 8.20757L145.309 15.6174L164.505 24.5434L181.182 32.2976C183.88 33.5524 186.554 34.9255 189.301 36.0728C189.34 36.0892 189.378 36.1088 189.417 36.1269C190.262 36.52 191.004 35.2636 190.153 34.8679L183.465 31.7583L167.426 24.3002L148.148 15.3365L131.487 7.58922C128.86 6.36781 126.253 4.97444 123.56 3.90346C122.911 3.64563 122.361 4.03741 121.767 4.31328L117.691 6.20851L102.601 13.225L83.3468 22.178L66.0224 30.2335L56.4986 34.6619L56.0557 34.8678C55.8304 34.9969 55.6923 35.2376 55.6947 35.4973C55.6947 41.3958 55.6293 47.2981 55.7132 53.1961C56.3693 98.9632 73.9782 142.86 105.133 176.393C107.364 178.794 109.658 181.134 112.015 183.414C113.984 185.397 116.432 186.838 119.121 187.597C121.813 188.311 124.647 188.288 127.327 187.531C130.085 186.745 132.363 185.189 134.401 183.212C139.096 178.658 143.545 173.857 147.728 168.83C172.714 138.828 187.553 101.682 190.114 62.7219C190.657 54.5025 190.514 46.2567 190.514 38.0244V35.4973C190.514 34.5591 189.056 34.5576 189.056 35.4973Z" fill="#1C1F34"/>
<path d="M110.684 180.25C103.806 173.399 97.6301 165.878 92.2486 157.798C87.9295 151.27 83.9701 144.255 81.6662 136.737C80.7516 133.739 80.2487 130.63 80.1711 127.497L79.9104 118.544L79.4905 104.118L79.0056 87.4624L78.5503 71.8192L78.2187 60.4308C78.1624 58.4964 78.2904 56.357 77.9321 54.4503C77.1773 50.6651 74.199 47.7177 70.4061 47.0023C69.5771 46.8562 68.7406 46.8944 67.9115 46.7607C64.993 46.3 62.4383 44.5467 60.9589 41.9892C60.2678 40.7942 59.9462 39.4956 59.5988 38.1754C59.3602 37.2688 57.9535 37.6533 58.1928 38.563C58.494 39.9469 58.9676 41.2874 59.6028 42.5532C61.5148 45.9922 65.0859 48.1811 69.018 48.3243C70.8288 48.3847 72.5631 49.0688 73.9274 50.261C75.8401 51.9515 76.6023 54.1918 76.6515 56.6835C76.6656 57.3964 76.693 58.1094 76.7138 58.8222L77.0071 68.8982L77.4438 83.8997L77.9323 100.681L78.3755 115.903L78.6776 126.282C78.7454 128.609 78.814 130.891 79.263 133.192C80.6576 140.338 84.0634 147.117 87.7358 153.338C92.5706 161.425 98.2134 169.001 104.577 175.95C106.226 177.768 107.917 179.545 109.653 181.281C110.316 181.946 111.348 180.915 110.684 180.25H110.684Z" fill="#1C1F34"/>
<path d="M122.318 15.77C122.269 16.7711 122.224 17.7723 122.18 18.7736C122.058 21.5344 121.943 24.2955 121.834 27.057C121.668 31.2656 121.515 35.4747 121.374 39.6843C121.196 44.9662 121.038 50.2487 120.899 55.5317C120.739 61.5984 120.607 67.6659 120.501 73.7339C120.391 80.1939 120.318 86.6544 120.282 93.1155C120.249 99.6915 120.267 106.268 120.336 112.844C120.408 119.14 120.537 125.436 120.758 131.729C120.959 137.469 121.234 143.206 121.649 148.935C121.998 153.758 122.444 158.578 123.107 163.37C123.246 164.375 123.396 165.378 123.559 166.379C123.71 167.303 125.115 166.911 124.965 165.991C124.235 161.517 123.764 157.002 123.384 152.486C122.92 146.969 122.61 141.438 122.377 135.907C122.115 129.691 121.954 123.471 121.854 117.25C121.75 110.733 121.707 104.215 121.725 97.6963C121.736 91.1858 121.791 84.6756 121.889 78.1656C121.979 71.9968 122.1 65.8286 122.252 59.6609C122.386 54.1683 122.541 48.6763 122.717 43.1849C122.86 38.7031 123.018 34.2217 123.188 29.7407C123.308 26.6038 123.435 23.4671 123.57 20.3308C123.633 18.8765 123.752 17.4142 123.767 15.9585C123.768 15.8957 123.773 15.8326 123.776 15.7698C123.821 14.8321 122.363 14.8343 122.318 15.7698L122.318 15.77Z" fill="#1C1F34"/>
<path d="M78.5296 88.3998C80.0648 87.9205 81.6337 87.5356 83.1965 87.1587C87.5821 86.1009 92.018 85.2509 96.4721 84.5382C103.293 83.447 110.169 82.6995 117.061 82.2404C126.047 81.6463 135.059 81.5363 144.057 81.9109C154.78 82.3523 165.466 83.4638 176.05 85.2391C177.436 85.4715 178.819 85.7151 180.201 85.9699C181.118 86.1387 181.512 84.7338 180.589 84.564C169.768 82.5684 158.832 81.2568 147.846 80.6369C138.596 80.1152 129.324 80.1031 120.072 80.6005C112.807 80.9942 105.571 81.721 98.3621 82.7808C93.5551 83.4956 88.7677 84.3673 84.0324 85.4637C82.0941 85.9125 80.1045 86.3336 78.2159 86.9712C78.1915 86.9795 78.1666 86.9862 78.142 86.9939C77.2493 87.2726 77.6304 88.6806 78.5296 88.3998L78.5296 88.3998Z" fill="#1C1F34"/>
<path d="M57.7806 93.8974C58.5439 95.1689 59.4712 96.3343 60.5388 97.3637C63.2199 100.051 66.3714 102.224 69.8366 103.774C72.6488 105.048 75.5952 106.003 78.6204 106.62C79.536 106.811 79.9275 105.405 79.008 105.214C74.2617 104.227 69.6633 102.492 65.6492 99.7441C64.3171 98.8359 63.0684 97.8111 61.9179 96.6818C61.4706 96.2416 61.0406 95.7847 60.6278 95.3113C60.4575 95.1152 60.2908 94.9161 60.1277 94.714C60.0623 94.633 59.9981 94.5511 59.9336 94.4693C59.9217 94.4542 60.0137 94.5761 59.9238 94.4565C59.8897 94.4111 59.8551 94.3659 59.821 94.3205C59.5348 93.9522 59.2737 93.565 59.0398 93.1614C58.5848 92.3406 57.3252 93.0752 57.7809 93.8972L57.7806 93.8974Z" fill="#1C1F34"/>
<circle cx="216.393" cy="19.9358" r="13.8157" fill="#FF5323"/>
<path d="M215.664 6.12028C215.632 11.5765 212.248 16.4515 207.148 18.3894C205.684 18.9264 204.137 19.2031 202.577 19.207C202.185 19.2208 201.874 19.5431 201.874 19.936C201.874 20.3289 202.185 20.6512 202.577 20.665C208.034 20.6968 212.908 24.0806 214.846 29.1812C215.383 30.6453 215.66 32.1922 215.664 33.7517C215.678 34.1443 216 34.4555 216.393 34.4555C216.786 34.4555 217.108 34.1443 217.122 33.7517C217.154 28.2955 220.537 23.4205 225.638 21.4826C227.102 20.9455 228.649 20.6688 230.209 20.665C230.601 20.6512 230.912 20.3289 230.912 19.936C230.912 19.5431 230.601 19.2208 230.209 19.207C224.752 19.1751 219.877 15.7913 217.94 10.6907C217.403 9.22657 217.126 7.67974 217.122 6.12021C217.118 5.18224 215.66 5.18033 215.664 6.12021C215.663 9.97807 217.195 13.6783 219.923 16.4062C222.651 19.1341 226.351 20.6661 230.209 20.6649V19.207C226.351 19.2058 222.651 20.7378 219.923 23.4657C217.195 26.1936 215.663 29.8938 215.664 33.7517H217.122C217.123 29.8938 215.591 26.1936 212.863 23.4657C210.135 20.7378 206.435 19.2058 202.577 19.207V20.665C208.662 20.6187 214.09 16.8303 216.232 11.1348C216.82 9.52844 217.122 7.83107 217.122 6.12028C217.126 5.18195 215.668 5.18076 215.664 6.12028Z" fill="#1C1F34"/>
<circle cx="14.7054" cy="103.284" r="13.8157" fill="#FF5323"/>
<path d="M13.7905 89.4688C13.7587 94.9251 10.3749 99.8001 5.27435 101.738C3.81018 102.275 2.26334 102.552 0.703791 102.556C0.311159 102.569 0 102.892 0 103.285C0 103.677 0.311159 104 0.703791 104.014C6.16004 104.045 11.0351 107.429 12.9729 112.53C13.51 113.994 13.7867 115.541 13.7905 117.1C13.8041 117.493 14.1264 117.805 14.5195 117.805C14.9126 117.805 15.235 117.493 15.2485 117.1C15.2803 111.644 18.6641 106.769 23.7647 104.831C25.2289 104.294 26.7757 104.017 28.3352 104.014C28.7279 104 29.039 103.677 29.039 103.285C29.039 102.892 28.7279 102.569 28.3352 102.556C22.8791 102.524 18.0041 99.14 16.0661 94.0395C15.529 92.5753 15.2523 91.0284 15.2485 89.4688C15.2443 88.5309 13.7863 88.529 13.7905 89.4688C13.7893 93.3267 15.3213 97.0269 18.0492 99.7548C20.7771 102.483 24.4773 104.015 28.3352 104.014V102.556C24.4773 102.554 20.7771 104.086 18.0492 106.814C15.3213 109.542 13.7893 113.242 13.7905 117.1H15.2485C15.2022 111.016 11.4138 105.588 5.71828 103.446C4.11191 102.857 2.41454 102.556 0.703755 102.556V104.014C4.56162 104.015 8.26182 102.483 10.9897 99.7548C13.7177 97.0269 15.2497 93.3267 15.2485 89.4688C15.2527 88.5305 13.7947 88.5293 13.7905 89.4688Z" fill="#1C1F34"/>
<circle cx="178.521" cy="9.45199" r="8.74789" fill="#FF5323"/>
<path d="M177.792 0.704164C177.747 5.11415 174.183 8.67815 169.773 8.72305C169.38 8.73659 169.068 9.05898 169.068 9.45205C169.068 9.84513 169.38 10.1675 169.773 10.1811C174.183 10.226 177.747 13.79 177.792 18.1999C177.805 18.5926 178.128 18.9037 178.521 18.9037C178.913 18.9037 179.236 18.5926 179.25 18.1999C179.294 13.79 182.859 10.226 187.268 10.1811C187.661 10.1675 187.973 9.84513 187.973 9.45205C187.973 9.05898 187.661 8.73659 187.268 8.72305C182.859 8.67815 179.294 5.11415 179.25 0.704164C179.243 -0.233549 177.785 -0.235785 177.792 0.704164C177.792 5.93809 182.035 10.181 187.268 10.1811V8.72305C182.035 8.72309 177.792 12.966 177.792 18.1999H179.25C179.25 12.966 175.007 8.72305 169.773 8.72305V10.1811C172.286 10.1811 174.697 9.1826 176.474 7.40534C178.251 5.62808 179.25 3.21759 179.25 0.704164C179.256 -0.234234 177.798 -0.235208 177.792 0.704164Z" fill="#1C1F34"/>
<path d="M149.048 83.5658C149.651 74.7733 149.648 74.9553 149.648 69.8134C149.647 64.6714 153.388 63.9124 154.628 69.0115C155.813 77.2357 154.637 91.649 154.637 91.649L176.021 109.323L217.458 109.809L216.601 126.576L155.852 124.875L131.066 97.9026L133.496 85.7528L142.487 79.4348" fill="#FC7272"/>
<path d="M149.777 83.5665C149.975 80.6735 150.211 77.7789 150.321 74.8807C150.355 73.9865 150.368 73.0918 150.373 72.1971C150.38 70.8833 150.245 69.4915 150.532 68.2032C150.632 67.6432 150.865 67.1156 151.213 66.6649C151.331 66.5065 151.492 66.3857 151.677 66.3174C151.549 66.3741 151.816 66.2845 151.866 66.2756C151.708 66.3039 151.984 66.2795 152.047 66.2849C151.887 66.2714 152.179 66.3231 152.234 66.3421C152.431 66.4106 152.124 66.2746 152.313 66.3805C152.355 66.4043 152.396 66.4284 152.438 66.4536C152.639 66.5876 152.814 66.755 152.958 66.9485C153.395 67.5628 153.705 68.258 153.87 68.9934C154.019 69.6933 154.11 70.4043 154.142 71.1192C154.213 71.8996 154.266 72.6816 154.306 73.4641C154.393 75.1185 154.425 76.7755 154.427 78.432C154.431 81.4565 154.334 84.4812 154.174 87.5014C154.122 88.4922 154.062 89.4826 153.994 90.4726C153.968 90.8577 153.899 91.2615 153.908 91.6478C153.917 92.0626 154.204 92.2336 154.48 92.4622L155.648 93.427L159.789 96.8496L170.448 105.66L174.32 108.86C174.758 109.222 175.446 110.018 176.052 110.053C176.695 110.091 177.348 110.069 177.992 110.076L182.394 110.128L195.478 110.281L209.106 110.441L217.075 110.535L217.458 110.539L216.729 109.81L216.44 115.454L215.978 124.505L215.872 126.577L216.601 125.848L210.535 125.678L196.061 125.273L178.47 124.78L163.339 124.356L158.326 124.216C157.542 124.194 156.736 124.115 155.953 124.15C155.919 124.151 155.885 124.148 155.852 124.147L156.367 124.36L153.905 121.681L147.992 115.246L140.835 107.459L134.644 100.721L132.587 98.4823C132.272 98.1397 131.973 97.7466 131.625 97.4359C131.609 97.4215 131.596 97.4037 131.581 97.3878L131.769 98.0971L133.892 87.4806L134.199 85.9472L133.864 86.3829L141.728 80.8564L142.854 80.065C143.616 79.5296 142.889 78.2649 142.119 78.8061L137.072 82.3525L133.944 84.5507C133.52 84.8481 132.899 85.1474 132.769 85.6774C132.236 87.8555 131.886 90.0952 131.446 92.2937L130.682 96.1148L130.439 97.3269C130.359 97.5751 130.333 97.8379 130.363 98.0971C130.513 98.4032 130.726 98.6744 130.987 98.8935L132.231 100.248L136.583 104.983L148.158 117.58L152.913 122.754C153.693 123.603 154.448 124.485 155.258 125.306C155.655 125.709 156.3 125.618 156.828 125.632L160.673 125.74L174.443 126.126L191.87 126.614L207.643 127.055L216.204 127.295L216.601 127.306C217.001 127.299 217.323 126.977 217.33 126.577L217.618 120.933L218.081 111.882L218.187 109.81C218.182 109.41 217.858 109.086 217.458 109.081L213.32 109.033L203.431 108.917L191.476 108.776L181.105 108.655L177.713 108.615C177.181 108.609 176.621 108.551 176.09 108.596C176.067 108.598 176.043 108.595 176.02 108.595L176.536 108.809L169.294 102.823L157.771 93.299L155.152 91.1342L155.365 91.6497C155.882 85.7442 156.022 79.8117 155.785 73.8884C155.741 72.9453 155.68 72.0028 155.594 71.0626C155.549 70.0733 155.396 69.0919 155.138 68.1357C154.677 66.701 153.67 64.8193 151.921 64.8213C150.235 64.8233 149.345 66.6142 149.079 68.0444C148.787 69.61 148.926 71.2568 148.91 72.8437C148.873 76.423 148.563 79.9972 148.318 83.5663C148.254 84.5028 149.712 84.4988 149.776 83.5663L149.777 83.5665Z" fill="#1C1F34"/>
<path d="M236.423 138.716L199.497 137.856L236.423 138.716Z" fill="#FC7272"/>
<path d="M236.423 137.988L232.754 137.902L223.941 137.697L213.277 137.449L204.053 137.234C202.562 137.2 201.053 137.093 199.561 137.13C199.54 137.13 199.518 137.129 199.496 137.128C198.558 137.106 198.558 138.564 199.496 138.586L203.165 138.672L211.978 138.877L222.642 139.125L231.866 139.34C233.357 139.374 234.867 139.481 236.358 139.444C236.38 139.444 236.401 139.445 236.423 139.446C237.362 139.468 237.361 138.01 236.423 137.988H236.423Z" fill="#1C1F34"/>
<path d="M233.854 139.213L191.433 138.737C192.104 136.147 196.476 125.654 196.84 122.236C197.384 117.121 197.358 112.497 196.876 109.391L223.405 109.81H236.77" fill="#2A2726"/>
<path d="M233.854 138.484L229.625 138.436L219.473 138.322L207.244 138.185L196.669 138.067L193.168 138.027C192.623 138.021 192.05 137.964 191.506 138.009C191.482 138.011 191.457 138.008 191.433 138.008L192.136 138.931C192.473 137.646 192.972 136.396 193.428 135.151C194.112 133.285 194.807 131.424 195.471 129.551C196.082 127.824 196.688 126.086 197.156 124.313C197.719 122.184 197.812 119.95 197.909 117.76C198.078 114.902 197.968 112.034 197.579 109.197L196.876 110.12L202.411 110.207L213.572 110.383L222.371 110.523C223.942 110.547 225.513 110.539 227.085 110.539H236.77C237.708 110.539 237.709 109.081 236.77 109.081H228.439C226.591 109.081 224.741 109.102 222.892 109.073L214.948 108.947L203.647 108.768C201.428 108.733 199.197 108.626 196.978 108.663C196.944 108.664 196.91 108.662 196.876 108.661C196.65 108.666 196.439 108.773 196.302 108.953C196.165 109.133 196.118 109.365 196.173 109.584C196.497 111.996 196.601 114.433 196.484 116.863C196.438 118.361 196.341 119.857 196.2 121.349C196.169 121.672 196.14 121.996 196.101 122.318C196.091 122.402 196.108 122.272 196.108 122.267C196.103 122.307 196.097 122.347 196.09 122.386C196.078 122.459 196.066 122.533 196.053 122.606C195.994 122.929 195.921 123.249 195.842 123.567C194.946 127.175 193.529 130.665 192.248 134.148C191.715 135.596 191.122 137.048 190.73 138.543C190.673 138.762 190.72 138.995 190.857 139.175C190.994 139.355 191.206 139.462 191.433 139.466L195.662 139.513L205.813 139.627L218.043 139.764L228.617 139.883C230.333 139.902 232.065 139.99 233.781 139.941C233.805 139.94 233.829 139.941 233.853 139.941C234.792 139.952 234.792 138.494 233.853 138.483L233.854 138.484Z" fill="#1C1F34"/>
<path d="M212.024 138.312C213.27 138.444 214.675 135.687 215.79 131.383L209.797 130.701C209.978 135.168 210.773 138.179 212.024 138.312Z" fill="#1C1F34"/>
<path d="M212.024 139.04C213.196 139.135 214.032 137.883 214.521 136.998C215.399 135.279 216.062 133.458 216.493 131.577C216.548 131.358 216.501 131.125 216.364 130.946C216.227 130.766 216.016 130.659 215.79 130.654L209.797 129.972C209.395 129.974 209.07 130.299 209.068 130.701C209.149 132.631 209.291 134.636 209.856 136.495C210.192 137.599 210.746 138.872 212.024 139.04C212.425 139.038 212.751 138.713 212.753 138.311C212.743 137.913 212.422 137.592 212.024 137.582C212.252 137.612 212.108 137.585 212.057 137.575C211.938 137.552 212.164 137.637 212.095 137.592C212.062 137.576 212.031 137.558 212 137.538C211.877 137.437 212.119 137.658 212 137.54C211.94 137.48 211.88 137.422 211.824 137.358C211.707 137.224 211.904 137.484 211.803 137.326C211.776 137.284 211.748 137.242 211.722 137.2C211.461 136.752 211.273 136.267 211.164 135.761C210.768 134.102 210.554 132.406 210.526 130.701L209.797 131.43L215.79 132.112L215.087 131.189C214.702 132.857 214.133 134.477 213.391 136.02C213.174 136.481 212.892 136.908 212.552 137.289C212.515 137.327 212.273 137.535 212.419 137.425C212.35 137.476 212.275 137.515 212.204 137.562C212.098 137.635 212.305 137.534 212.229 137.555C212.202 137.563 212.153 137.593 212.123 137.587C211.979 137.559 212.291 137.626 212.149 137.586C212.107 137.581 212.065 137.58 212.024 137.582C211.622 137.586 211.298 137.91 211.295 138.311C211.302 138.711 211.624 139.033 212.024 139.04Z" fill="#1C1F34"/>
<path d="M213.199 173.233L261.713 127.064L213.199 173.233Z" fill="#FC7272"/>
<path d="M213.715 173.747L215.015 172.51L218.532 169.162L223.758 164.189L230.136 158.119L237.091 151.501L244.143 144.79L250.72 138.531L256.253 133.265L260.253 129.459C260.883 128.859 261.536 128.276 262.148 127.656C262.174 127.63 262.202 127.605 262.228 127.579C262.91 126.931 261.877 125.901 261.197 126.548L259.897 127.786L256.38 131.133L251.154 136.106L244.776 142.176L237.821 148.794L230.769 155.506L224.192 161.764L218.659 167.03L214.659 170.837C214.029 171.436 213.376 172.02 212.765 172.639C212.738 172.666 212.711 172.691 212.684 172.716C212.003 173.364 213.035 174.394 213.715 173.747Z" fill="#1C1F34"/>
<path d="M313.006 281.66L332.526 308.532L300.443 340.358C300.443 340.358 290.879 331.809 301.85 318.988C303.916 316.572 303.18 312.864 302.037 309.897C300.952 307.123 299.195 304.662 296.924 302.735" fill="#D90016"/>
<path d="M312.376 282.028L314.319 284.703L318.984 291.125L324.627 298.892L329.484 305.578L331.095 307.796C331.329 308.164 331.585 308.516 331.862 308.852C331.874 308.867 331.886 308.883 331.896 308.9L332.01 308.016L328.812 311.189L321.133 318.806L311.882 327.984L303.883 335.918L301.237 338.544C300.825 338.952 300.353 339.343 299.982 339.789C299.966 339.808 299.945 339.825 299.928 339.843H300.958C300.751 339.65 300.554 339.446 300.371 339.23C300.283 339.13 300.197 339.029 300.113 338.926C300.055 338.856 300 338.785 299.943 338.715C299.919 338.684 299.861 338.607 299.969 338.749C299.929 338.696 299.889 338.643 299.849 338.59C299.607 338.264 299.379 337.927 299.167 337.58C297.967 335.65 297.325 333.426 297.31 331.154C297.294 327.523 298.89 324.126 300.988 321.24C301.646 320.335 302.492 319.526 303.042 318.549C303.505 317.695 303.781 316.752 303.852 315.783C304.035 313.768 303.496 311.699 302.788 309.829C302.004 307.775 300.87 305.873 299.437 304.205C298.84 303.478 298.17 302.813 297.439 302.22C297.149 301.948 296.698 301.948 296.408 302.22C296.126 302.505 296.126 302.965 296.408 303.251C298.408 304.805 299.987 307.074 301.025 309.356C301.834 311.132 302.443 313.155 302.426 315.12C302.442 316.036 302.232 316.942 301.815 317.757C301.577 318.158 301.3 318.534 300.989 318.882C300.553 319.409 300.133 319.95 299.729 320.504C297.558 323.492 295.951 327.019 295.856 330.761C295.803 333.239 296.417 335.686 297.633 337.846C298.229 338.972 299.004 339.994 299.927 340.873C300.215 341.15 300.67 341.15 300.958 340.873L304.157 337.7L311.835 330.083L321.087 320.906L329.085 312.971C330.383 311.684 331.737 310.434 332.987 309.101C333.004 309.082 333.023 309.065 333.041 309.047C333.273 308.811 333.32 308.45 333.155 308.163L331.212 305.489L326.547 299.067L320.905 291.299L316.048 284.614C315.255 283.523 314.473 282.423 313.67 281.34C313.658 281.324 313.647 281.308 313.635 281.292C313.425 280.954 312.987 280.84 312.638 281.031C312.293 281.236 312.176 281.68 312.376 282.028Z" fill="#1C1F34"/>
<path d="M334.455 311.313L302.332 343.179C302.332 343.179 298.823 338.908 297.682 336.31L303.812 330.329L304.66 328.4C305.971 325.418 308.331 323.02 311.292 321.662L313.441 320.676L319.891 314.279C321.201 312.979 321.633 311.035 320.998 309.302C320.362 307.57 320.795 305.626 322.105 304.326L326.414 300.052L334.455 311.313Z" fill="white"/>
<path d="M333.939 310.798L330.745 313.967L323.072 321.578L313.791 330.785L305.768 338.744L303.124 341.366C302.713 341.774 302.241 342.164 301.87 342.61C301.854 342.629 301.834 342.646 301.816 342.664H302.847C302.208 341.885 301.627 341.122 301.031 340.306C299.974 338.951 299.062 337.488 298.311 335.943L298.197 336.826L303.953 331.211C304.202 331.003 304.405 330.745 304.548 330.455C304.842 329.787 305.123 329.112 305.434 328.452C306.613 325.943 308.58 323.888 311.034 322.599C311.728 322.236 312.454 321.928 313.166 321.601C313.522 321.469 313.85 321.271 314.133 321.018L317.181 317.994L320.218 314.981C321.833 313.463 322.404 311.138 321.678 309.044C321.235 307.791 321.431 306.401 322.204 305.32C322.532 304.913 322.892 304.534 323.281 304.186L326.672 300.823L326.929 300.568L325.784 300.42L332.822 310.277L333.825 311.681C334.035 312.02 334.473 312.135 334.822 311.943C335.167 311.738 335.284 311.294 335.084 310.945L328.045 301.089L327.043 299.684C326.926 299.493 326.728 299.365 326.506 299.336C326.283 299.307 326.06 299.381 325.898 299.537L323.081 302.331C321.901 303.502 320.615 304.585 320.166 306.265C319.979 306.974 319.936 307.713 320.04 308.439C320.129 309.077 320.403 309.656 320.509 310.288C320.708 311.561 320.286 312.853 319.374 313.764C318.623 314.527 317.853 315.274 317.093 316.028L313.58 319.512L313.102 319.987C313.059 320.029 313.01 320.07 312.971 320.116C312.868 320.241 313.004 320.007 313.063 320.052C312.789 320.143 312.525 320.264 312.278 320.413L311.147 320.931C308.832 321.978 306.836 323.619 305.36 325.687C304.761 326.558 304.252 327.489 303.841 328.464L303.342 329.598C303.316 329.658 303.177 329.872 303.194 329.935C303.203 329.967 303.377 329.774 303.259 329.851C302.904 330.14 302.575 330.461 302.277 330.809L300.52 332.523L297.354 335.612L297.166 335.795C296.94 336.034 296.894 336.391 297.052 336.679C297.821 338.258 298.755 339.751 299.838 341.133C300.477 342.002 301.132 342.861 301.816 343.695C302.103 343.976 302.561 343.976 302.847 343.695L306.042 340.526L313.714 332.915L322.996 323.707L331.019 315.748C332.315 314.463 333.667 313.215 334.916 311.883C334.933 311.864 334.952 311.847 334.97 311.829C335.637 311.167 334.606 310.136 333.939 310.798Z" fill="#1C1F34"/>
<path d="M303.508 315.769C303.616 315.738 303.726 315.714 303.837 315.698C304.04 315.664 303.645 315.717 303.843 315.696C303.91 315.689 303.978 315.683 304.046 315.678C304.205 315.668 304.365 315.667 304.524 315.675C304.607 315.679 304.689 315.687 304.771 315.694C304.915 315.707 304.589 315.661 304.771 315.694C304.822 315.703 304.874 315.712 304.926 315.722C305.129 315.766 305.329 315.824 305.524 315.895C305.663 315.943 305.391 315.831 305.538 315.899C305.586 315.921 305.633 315.943 305.68 315.967C305.794 316.024 305.904 316.087 306.011 316.155C306.059 316.186 306.106 316.218 306.152 316.251C306.175 316.267 306.315 316.387 306.191 316.278C306.299 316.373 306.408 316.465 306.511 316.567C306.796 316.848 307.255 316.847 307.539 316.564C307.822 316.28 307.824 315.821 307.542 315.536C306.755 314.755 305.711 314.288 304.605 314.221C304.106 314.18 303.603 314.228 303.121 314.363C302.868 314.431 302.671 314.629 302.605 314.882C302.538 315.135 302.612 315.404 302.799 315.588C302.986 315.771 303.257 315.84 303.508 315.769L303.508 315.769Z" fill="#1C1F34"/>
<path d="M302.522 319.01C302.63 318.979 302.74 318.955 302.851 318.939C303.054 318.905 302.659 318.958 302.857 318.937C302.924 318.93 302.992 318.924 303.06 318.919C303.219 318.909 303.379 318.908 303.538 318.916C303.621 318.92 303.703 318.928 303.785 318.935C303.929 318.948 303.602 318.902 303.785 318.935C303.836 318.945 303.888 318.953 303.939 318.963C304.142 319.007 304.342 319.065 304.538 319.136C304.677 319.184 304.405 319.072 304.552 319.141C304.6 319.163 304.647 319.184 304.694 319.208C304.808 319.265 304.918 319.328 305.025 319.397C305.073 319.427 305.12 319.459 305.166 319.492C305.189 319.508 305.329 319.628 305.205 319.519C305.313 319.614 305.422 319.706 305.525 319.808C305.81 320.09 306.269 320.088 306.553 319.805C306.836 319.521 306.837 319.062 306.556 318.777C305.769 317.997 304.725 317.529 303.619 317.462C303.12 317.421 302.617 317.469 302.135 317.604C301.883 317.673 301.688 317.871 301.623 318.123C301.557 318.375 301.631 318.643 301.816 318.826C302.002 319.009 302.271 319.079 302.522 319.01L302.522 319.01Z" fill="#1C1F34"/>
<path d="M300.563 321.922C300.671 321.891 300.781 321.867 300.892 321.851C301.095 321.818 300.7 321.87 300.898 321.849C300.965 321.842 301.033 321.836 301.101 321.831C301.26 321.821 301.42 321.82 301.579 321.828C301.662 321.832 301.744 321.84 301.826 321.847C301.97 321.86 301.643 321.814 301.826 321.847C301.877 321.857 301.929 321.865 301.981 321.875C302.184 321.919 302.383 321.977 302.579 322.048C302.718 322.096 302.446 321.984 302.593 322.053C302.641 322.075 302.688 322.097 302.735 322.12C302.849 322.177 302.959 322.24 303.066 322.309C303.114 322.339 303.161 322.371 303.207 322.404C303.23 322.42 303.37 322.541 303.246 322.431C303.354 322.526 303.463 322.618 303.566 322.72C303.851 323.002 304.31 323 304.594 322.717C304.877 322.433 304.879 321.974 304.597 321.689C303.81 320.909 302.766 320.441 301.66 320.375C301.161 320.334 300.658 320.382 300.176 320.516C299.923 320.584 299.726 320.782 299.66 321.035C299.594 321.288 299.668 321.557 299.855 321.74C300.041 321.924 300.312 321.993 300.563 321.922L300.563 321.922Z" fill="#1C1F34"/>
<path d="M300.016 339.928L332.099 308.102L300.016 339.928Z" fill="white"/>
<path d="M300.532 340.444L303.731 337.271L311.409 329.653L320.661 320.476L328.659 312.541C329.956 311.254 331.311 310.005 332.561 308.671C332.578 308.652 332.597 308.635 332.615 308.617C333.282 307.955 332.251 306.924 331.584 307.586L328.385 310.759L320.707 318.376L311.455 327.554L303.457 335.488C302.159 336.775 300.805 338.025 299.555 339.359C299.538 339.377 299.519 339.395 299.501 339.413C298.834 340.074 299.865 341.105 300.532 340.444H300.532Z" fill="#1C1F34"/>
<path d="M200.634 307.173L195.568 339.997H150.376C150.376 339.997 149.608 327.193 166.425 325.816C169.594 325.557 171.682 322.405 172.96 319.495C174.143 316.761 174.629 313.776 174.374 310.809" fill="#D90016"/>
<path d="M199.931 306.98L199.426 310.246L198.216 318.091L196.751 327.579L195.491 335.747L195.073 338.456C194.979 338.881 194.913 339.312 194.874 339.746C194.872 339.766 194.869 339.785 194.865 339.804L195.568 339.269H152.221C151.641 339.269 151.031 339.213 150.453 339.269C150.428 339.271 150.401 339.269 150.376 339.269L151.105 339.998C151.095 339.763 151.097 339.527 151.111 339.292C151.124 339.023 151.147 338.755 151.178 338.488C151.185 338.427 151.224 338.15 151.186 338.413C151.198 338.332 151.209 338.25 151.222 338.169C151.252 337.979 151.285 337.79 151.323 337.601C151.496 336.743 151.75 335.902 152.081 335.091C152.157 334.904 152.02 335.229 152.101 335.042C152.126 334.986 152.15 334.93 152.175 334.874C152.227 334.76 152.279 334.647 152.334 334.535C152.456 334.283 152.586 334.035 152.723 333.792C153.006 333.291 153.323 332.81 153.671 332.353C154.038 331.89 154.434 331.451 154.855 331.037C155.326 330.579 155.831 330.159 156.368 329.781C157.659 328.885 159.074 328.182 160.568 327.694C162.569 327.028 164.595 326.774 166.676 326.519C168.866 326.25 170.552 324.791 171.805 323.061C173.4 320.807 174.457 318.219 174.896 315.493C175.19 313.95 175.26 312.373 175.103 310.81C175.091 310.412 174.771 310.093 174.374 310.081C173.972 310.083 173.647 310.408 173.645 310.81C173.781 312.074 173.755 313.351 173.566 314.609C173.241 317.034 172.411 319.364 171.13 321.448C170.117 323.098 168.637 324.79 166.606 325.069C165.497 325.222 164.384 325.296 163.28 325.5C162.303 325.678 161.338 325.918 160.392 326.219C157.511 327.144 154.785 328.714 152.843 331.069C151.48 332.72 150.515 334.662 150.02 336.744C149.741 337.805 149.616 338.901 149.647 339.998C149.655 340.397 149.977 340.719 150.376 340.727H189.995C191.823 340.727 193.664 340.794 195.491 340.727C195.516 340.726 195.542 340.727 195.567 340.727C195.895 340.725 196.181 340.507 196.27 340.192L196.775 336.925L197.985 329.08L199.45 319.592L200.71 311.425C200.916 310.092 201.13 308.759 201.328 307.425C201.331 307.406 201.334 307.386 201.337 307.367C201.431 306.981 201.208 306.588 200.827 306.471C200.44 306.367 200.04 306.593 199.931 306.98V306.98Z" fill="#1C1F34"/>
<path d="M218.994 173.003L213.311 173.143C213.311 173.143 211.34 179.43 216.689 182.151C221.885 184.794 218.994 173.003 218.994 173.003Z" fill="#1C1F34"/>
<path d="M218.994 172.274L213.311 172.414C212.985 172.421 212.701 172.637 212.608 172.949C212.242 174.196 212.131 175.503 212.282 176.793C212.507 179.352 214.033 181.614 216.321 182.78C217.055 183.15 217.931 183.438 218.743 183.146C219.45 182.85 219.983 182.247 220.19 181.509C220.739 179.955 220.552 178.114 220.354 176.514C220.207 175.267 219.988 174.03 219.697 172.809C219.475 171.898 218.068 172.284 218.291 173.197C218.499 174.045 218.657 174.909 218.791 175.771C218.898 176.458 218.988 177.198 219.037 178.017C219.061 178.428 219.073 178.84 219.064 179.252C219.06 179.437 219.052 179.622 219.039 179.806C219.032 179.895 219.025 179.984 219.016 180.073C219.01 180.126 218.98 180.35 219.002 180.201C218.953 180.531 218.874 180.856 218.766 181.172C218.726 181.287 218.829 181.067 218.737 181.24C218.705 181.299 218.677 181.359 218.643 181.417C218.61 181.472 218.574 181.525 218.538 181.578C218.634 181.439 218.544 181.568 218.49 181.623C218.47 181.643 218.315 181.77 218.413 181.697C218.506 181.628 218.367 181.718 218.341 181.737C218.194 181.843 218.414 181.728 218.314 181.756C218.239 181.776 218.167 181.797 218.092 181.813C218.254 181.778 218.128 181.81 218.041 181.808C217.971 181.806 217.901 181.804 217.83 181.798C218.002 181.812 217.798 181.79 217.739 181.775C217.645 181.752 217.553 181.726 217.461 181.695C216.977 181.507 216.519 181.255 216.101 180.946C215.642 180.619 215.235 180.225 214.894 179.776C214.31 178.975 213.928 178.046 213.78 177.067C213.709 176.603 213.678 176.135 213.686 175.666C213.689 175.447 213.698 175.229 213.716 175.01C213.724 174.899 213.735 174.787 213.747 174.676C213.751 174.634 213.757 174.591 213.762 174.549C213.779 174.404 213.751 174.619 213.764 174.532C213.816 174.127 213.899 173.728 214.014 173.337L213.311 173.872L218.994 173.732C219.931 173.709 219.934 172.251 218.994 172.274Z" fill="#1C1F34"/>
<path d="M260.414 166.199C260.414 166.199 270.173 168.076 271.299 173.706C272.425 179.336 258.162 180.649 258.162 180.649" fill="#1C1F34"/>
<path d="M260.221 166.902C261.689 167.201 263.124 167.644 264.505 168.226C266.676 169.12 269.118 170.504 270.206 172.716C270.322 172.955 270.417 173.203 270.488 173.458C270.564 173.684 270.611 173.92 270.628 174.158C270.634 174.261 270.635 174.365 270.63 174.469C270.627 174.53 270.622 174.591 270.615 174.651C270.632 174.495 270.622 174.602 270.616 174.636C270.594 174.744 270.571 174.85 270.54 174.955C270.525 175.007 270.412 175.296 270.479 175.144C270.099 175.917 269.49 176.554 268.735 176.969C266.854 178.162 264.63 178.757 262.422 179.234C261.398 179.454 260.367 179.637 259.328 179.781C259.278 179.788 259.228 179.794 259.178 179.801C259.006 179.825 259.349 179.779 259.183 179.801C259.098 179.812 259.012 179.823 258.926 179.834C258.789 179.851 258.652 179.867 258.514 179.883C258.397 179.896 258.28 179.909 258.163 179.92C257.764 179.93 257.444 180.251 257.434 180.649C257.436 181.05 257.761 181.375 258.163 181.378C259.521 181.244 260.871 181.039 262.208 180.764C264.573 180.292 267.015 179.653 269.119 178.44C270.076 177.931 270.897 177.199 271.51 176.305C272.081 175.376 272.233 174.249 271.93 173.201C271.205 170.436 268.664 168.586 266.215 167.405C264.435 166.532 262.551 165.89 260.608 165.496C259.692 165.319 259.299 166.724 260.221 166.902L260.221 166.902Z" fill="#1C1F34"/>
<path d="M242.278 191.27L210.33 250.614L199.624 313.637L161.245 313.68C161.245 313.68 161.936 274.062 177.202 232.232C187.302 204.559 210.67 177.538 213.36 173.249C221.328 160.547 240.023 153.05 240.023 153.05" fill="white"/>
<path d="M241.649 190.903L238.613 196.542L231.272 210.178L222.312 226.82L214.299 241.705L209.918 249.843C209.739 250.15 209.616 250.487 209.556 250.838L208.997 254.125L206.634 268.041L203.483 286.588L200.589 303.626L198.994 313.012L198.921 313.443L199.624 312.908L186.666 312.923L166.002 312.946L161.245 312.952L161.974 313.681C162.097 306.729 162.832 299.753 163.679 292.859C165.673 276.335 169.122 260.02 173.985 244.102C176.635 235.499 179.71 227.083 183.77 219.039C187.453 211.838 191.567 204.867 196.091 198.162C199.718 192.727 203.551 187.434 207.5 182.229C209.644 179.403 211.995 176.667 213.939 173.696C217.559 168.167 222.587 163.845 228.089 160.253C231.779 157.831 235.669 155.728 239.715 153.965C239.811 153.923 239.908 153.882 240.005 153.841C240.087 153.806 239.856 153.903 240.043 153.825C240.101 153.801 240.159 153.777 240.217 153.753C241.077 153.408 240.701 151.997 239.829 152.347C236.855 153.578 233.969 155.013 231.193 156.643C225.592 159.859 220.183 163.733 215.92 168.624C214.436 170.327 213.26 172.217 211.931 174.03C210.886 175.457 209.795 176.85 208.718 178.252C205.058 183.017 201.458 187.826 198.021 192.754C193.453 199.245 189.229 205.971 185.366 212.904C181.243 220.372 177.777 228.185 175.007 236.253C169.291 252.896 165.366 270.153 162.918 287.57C161.72 296.094 160.761 304.712 160.524 313.324C160.521 313.443 160.518 313.562 160.516 313.681C160.521 314.081 160.844 314.405 161.245 314.41L174.202 314.395L194.866 314.372L199.624 314.366C199.951 314.364 200.237 314.146 200.327 313.831L201.451 307.216L204.113 291.541L207.285 272.871L209.943 257.221L210.744 252.505L210.962 251.226C210.983 251.098 211.122 250.595 210.961 250.98C211.193 250.427 211.543 249.899 211.826 249.371L214.089 245.168L221.48 231.44L230.445 214.788L238.392 200.027L242.711 192.004L242.908 191.638C243.352 190.812 242.094 190.075 241.649 190.903L241.649 190.903Z" fill="#1C1F34"/>
<path d="M262.983 157.191L279.904 231.342L318.847 290.224L291.662 317.029C291.662 317.029 264.371 288.302 245.918 247.777C233.71 220.967 231.417 185.317 230.327 180.373V162.039" fill="white"/>
<path d="M262.28 157.384L263.866 164.334L267.676 181.029L272.402 201.739L276.624 220.24L279.04 230.83C279.38 232.32 280.483 233.537 281.316 234.796L289.844 247.69L301.338 265.069L312.05 281.265L317.938 290.167L318.217 290.59L318.331 289.707L309.153 298.757L294.517 313.189L291.147 316.512H292.178C288.026 312.14 284.211 307.413 280.496 302.672C271.411 291.096 263.225 278.842 256.01 266.017C251.703 258.344 247.595 250.449 244.364 242.255C241.451 234.705 239.103 226.949 237.34 219.05C234.622 207.271 233.047 195.337 231.509 183.363C231.418 182.652 231.326 181.942 231.217 181.234C231.183 181.009 231.147 180.784 231.106 180.56C231.088 180.462 231.064 180.364 231.049 180.265C231.024 180.103 231.061 180.495 231.056 180.308C231.02 178.917 231.056 177.52 231.056 176.129V162.038C231.056 161.1 229.598 161.099 229.598 162.038V172.866C229.598 175.771 229.37 178.748 229.811 181.621C230.429 185.637 230.837 189.839 231.39 193.926C232.298 200.648 233.383 207.347 234.748 213.992C236.328 221.922 238.424 229.741 241.022 237.398C243.839 245.545 247.563 253.332 251.586 260.945C258.868 274.649 267.256 287.736 276.667 300.075C281.17 306.005 285.846 311.86 290.929 317.31C291.001 317.388 291.074 317.466 291.147 317.543C291.434 317.822 291.891 317.822 292.178 317.543L301.356 308.493L315.993 294.061L319.362 290.738C319.594 290.502 319.64 290.141 319.476 289.855L315.319 283.568L305.446 268.641L293.803 251.037L284.192 236.504L281.39 232.268C281.159 231.919 280.938 231.56 280.696 231.218C280.645 231.147 280.598 231.073 280.551 230.999C280.48 230.887 280.632 231.257 280.598 231.104C280.007 228.508 279.415 225.912 278.82 223.316L274.892 206.104L270.189 185.496L266.03 167.269L263.791 157.457L263.686 156.997C263.477 156.082 262.071 156.469 262.28 157.384Z" fill="#1C1F34"/>
<path d="M271.299 173.222C265.669 167.154 213.404 173.049 213.404 173.049L223.012 116.256C223.385 112.571 226.273 109.78 229.712 109.78H252.661C256.398 109.78 258.35 111.326 259.954 116.81C259.954 116.81 269.61 155.017 271.299 173.222Z" fill="#2A2726"/>
<path d="M223.538 109.78H252.661C256.398 109.78 258.35 111.326 259.954 116.81C259.954 116.81 269.61 155.017 271.299 173.222C265.669 167.154 213.311 173.143 213.311 173.143L220.227 133.457" fill="#2A2726"/>
<path d="M223.539 110.509H248.195C249.733 110.509 251.273 110.492 252.812 110.51C254.566 110.531 256.086 110.993 257.192 112.402C258.233 113.728 258.845 115.469 259.27 117.08C259.666 118.578 260.018 120.09 260.384 121.596C261.18 124.871 261.957 128.15 262.716 131.434C263.711 135.74 264.67 140.055 265.594 144.377C266.573 148.975 267.505 153.583 268.348 158.208C269.101 162.338 269.799 166.487 270.295 170.65C270.398 171.507 270.489 172.364 270.57 173.222L271.815 172.707C271.006 171.846 269.782 171.409 268.676 171.092C266.996 170.645 265.28 170.347 263.548 170.199C258.845 169.706 254.085 169.721 249.363 169.823C244.013 169.938 238.667 170.23 233.33 170.606C228.836 170.923 224.347 171.3 219.862 171.736C218.397 171.878 216.933 172.026 215.469 172.18C214.79 172.251 214.069 172.266 213.4 172.404C213.371 172.41 213.34 172.411 213.311 172.414L214.014 173.337L214.702 169.39L216.354 159.91L218.353 148.442L220.08 138.53C220.36 136.926 220.658 135.324 220.919 133.717C220.923 133.695 220.927 133.673 220.931 133.651C221.026 133.264 220.802 132.87 220.422 132.754C220.034 132.65 219.635 132.877 219.525 133.263L218.837 137.21L217.185 146.69L215.186 158.157L213.458 168.07C213.179 169.674 212.881 171.276 212.62 172.883C212.616 172.905 212.612 172.927 212.608 172.949C212.536 173.362 212.797 173.931 213.311 173.872C215.055 173.673 216.801 173.496 218.548 173.323C222.772 172.904 227 172.536 231.234 172.217C236.526 171.82 241.826 171.503 247.131 171.339C252 171.135 256.876 171.187 261.739 171.496C263.536 171.599 265.322 171.833 267.084 172.198C267.762 172.338 268.43 172.524 269.083 172.752C269.229 172.805 269.375 172.862 269.519 172.921C269.351 172.853 269.483 172.905 269.567 172.944C269.638 172.977 269.708 173.01 269.778 173.044C269.999 173.155 270.214 173.28 270.421 173.418C270.466 173.447 270.508 173.481 270.552 173.512C270.341 173.364 270.503 173.472 270.55 173.515C270.629 173.589 270.709 173.659 270.784 173.738C271.192 174.173 272.088 173.86 272.028 173.222C271.651 169.184 271.03 165.167 270.346 161.17C269.552 156.528 268.649 151.905 267.694 147.293C266.763 142.797 265.785 138.311 264.761 133.834C263.939 130.222 263.094 126.614 262.227 123.012C261.751 121.037 261.268 119.064 260.777 117.092C260.077 114.296 258.853 110.89 256.002 109.655C254.202 108.874 252.135 109.051 250.212 109.051H223.539C222.6 109.051 222.599 110.509 223.539 110.509V110.509Z" fill="#1C1F34"/>
<path d="M194.978 343.33H149.731C149.731 343.33 150.247 337.827 151.267 335.178L159.831 335.25L161.791 334.478C164.822 333.284 168.186 333.243 171.245 334.365L173.465 335.178H182.549C184.395 335.178 186.071 334.103 186.84 332.425C187.609 330.747 189.285 329.672 191.131 329.672H197.2L194.978 343.33Z" fill="white"/>
<path d="M194.978 342.602H151.573C150.994 342.602 150.384 342.546 149.807 342.602C149.782 342.604 149.756 342.602 149.731 342.602L150.46 343.331C150.553 342.346 150.68 341.365 150.828 340.387C151.032 338.681 151.414 337 151.97 335.373L151.267 335.908L159.261 335.975C159.575 336.008 159.892 335.978 160.194 335.887C160.816 335.642 161.437 335.392 162.061 335.152C164.961 334.035 168.169 334.01 171.087 335.081C171.756 335.325 172.423 335.571 173.091 335.816C173.38 335.901 173.682 335.933 173.981 335.908H178.544C179.845 335.908 181.146 335.913 182.447 335.908C183.406 335.915 184.351 335.679 185.194 335.223C185.77 334.907 186.282 334.486 186.703 333.982C187.073 333.479 187.4 332.946 187.681 332.388C188.304 331.32 189.384 330.599 190.609 330.431C191.115 330.389 191.623 330.379 192.13 330.402H197.2L196.497 329.479L194.552 341.434L194.275 343.137C194.181 343.523 194.404 343.917 194.784 344.034C195.172 344.137 195.571 343.911 195.681 343.524L197.626 331.57L197.903 329.866C197.959 329.647 197.911 329.415 197.774 329.235C197.637 329.056 197.426 328.948 197.2 328.944H193.319C191.708 328.944 190.081 328.804 188.598 329.569C188.015 329.872 187.494 330.28 187.06 330.773C186.67 331.26 186.336 331.789 186.064 332.351C185.472 333.436 184.416 334.192 183.198 334.4C182.765 334.454 182.329 334.47 181.893 334.45H174.818C174.386 334.423 173.953 334.423 173.521 334.45C173.373 334.47 173.622 334.374 173.649 334.473C173.64 334.441 173.405 334.383 173.373 334.371L172.22 333.949C171.234 333.561 170.216 333.261 169.177 333.053C167.571 332.769 165.928 332.759 164.319 333.026C163.199 333.23 162.103 333.553 161.052 333.99L159.914 334.439C159.903 334.443 159.642 334.548 159.641 334.546C159.626 334.513 159.942 334.542 159.762 334.521C159.288 334.492 158.813 334.488 158.338 334.509L155.863 334.489L151.53 334.453L151.267 334.45C150.941 334.458 150.658 334.674 150.564 334.986C149.998 336.648 149.609 338.365 149.406 340.109C149.246 341.179 149.104 342.253 149.002 343.331C149.006 343.732 149.33 344.056 149.731 344.06H189.413C191.238 344.06 193.077 344.126 194.902 344.06C194.927 344.059 194.953 344.06 194.978 344.06C195.916 344.06 195.918 342.602 194.978 342.602Z" fill="#1C1F34"/>
<path d="M169.859 324.694C169.922 324.727 169.983 324.766 170.042 324.806C170.079 324.83 170.233 324.908 170.242 324.948C170.239 324.935 170.071 324.812 170.165 324.889C170.184 324.904 170.203 324.919 170.221 324.934C170.268 324.973 170.313 325.012 170.358 325.052C170.449 325.133 170.535 325.218 170.618 325.307C170.666 325.357 170.712 325.409 170.756 325.462C170.778 325.487 170.798 325.513 170.82 325.538C170.889 325.621 170.712 325.392 170.8 325.512C170.893 325.638 170.979 325.769 171.057 325.905C171.098 325.977 171.137 326.051 171.173 326.126C171.191 326.161 171.207 326.197 171.223 326.233C171.272 326.338 171.164 326.077 171.219 326.226C171.292 326.419 171.35 326.618 171.392 326.82C171.402 326.871 171.41 326.924 171.42 326.976C171.435 327.056 171.409 326.892 171.41 326.896C171.411 326.927 171.417 326.958 171.42 326.989C171.433 327.118 171.438 327.248 171.439 327.378C171.437 327.64 171.576 327.882 171.802 328.014C172.028 328.145 172.308 328.145 172.534 328.014C172.76 327.882 172.899 327.64 172.897 327.378C172.875 325.857 172.109 324.444 170.848 323.594C170.767 323.536 170.683 323.483 170.595 323.435C170.248 323.235 169.804 323.353 169.602 323.699C169.4 324.045 169.515 324.489 169.859 324.694Z" fill="#1C1F34"/>
<path d="M166.877 326.299C166.94 326.333 167 326.372 167.06 326.411C167.097 326.436 167.25 326.514 167.259 326.553C167.256 326.54 167.089 326.418 167.183 326.494C167.201 326.51 167.22 326.525 167.239 326.54C167.285 326.578 167.331 326.618 167.376 326.658C167.466 326.739 167.553 326.824 167.636 326.912C167.683 326.963 167.729 327.014 167.774 327.067C167.795 327.092 167.816 327.118 167.837 327.144C167.907 327.227 167.73 326.997 167.817 327.118C167.91 327.244 167.996 327.375 168.075 327.511C168.116 327.583 168.155 327.656 168.191 327.731C168.208 327.767 168.224 327.803 168.241 327.838C168.29 327.943 168.182 327.682 168.237 327.832C168.31 328.025 168.367 328.223 168.409 328.425C168.42 328.477 168.427 328.529 168.437 328.581C168.453 328.662 168.427 328.497 168.427 328.501C168.428 328.532 168.434 328.564 168.438 328.595C168.45 328.724 168.456 328.854 168.457 328.984C168.457 329.386 168.783 329.713 169.186 329.713C169.588 329.713 169.915 329.386 169.915 328.984C169.892 327.463 169.127 326.05 167.866 325.2C167.785 325.142 167.7 325.088 167.612 325.04C167.265 324.842 166.823 324.96 166.621 325.306C166.419 325.651 166.533 326.094 166.877 326.299Z" fill="#1C1F34"/>
<path d="M163.435 326.988C163.498 327.021 163.558 327.06 163.618 327.1C163.655 327.124 163.809 327.202 163.817 327.241C163.814 327.229 163.647 327.106 163.741 327.183C163.759 327.198 163.778 327.213 163.797 327.228C163.843 327.267 163.889 327.306 163.934 327.346C164.024 327.427 164.111 327.512 164.194 327.601C164.241 327.651 164.287 327.703 164.332 327.756C164.354 327.781 164.374 327.807 164.395 327.832C164.465 327.915 164.288 327.686 164.375 327.806C164.468 327.932 164.554 328.063 164.633 328.199C164.674 328.271 164.713 328.345 164.749 328.42C164.766 328.455 164.782 328.491 164.799 328.527C164.848 328.632 164.74 328.371 164.795 328.52C164.868 328.713 164.925 328.912 164.967 329.114C164.978 329.165 164.985 329.218 164.995 329.27C165.011 329.35 164.985 329.186 164.985 329.19C164.987 329.221 164.992 329.252 164.996 329.283C165.008 329.412 165.014 329.542 165.015 329.672C165.018 330.073 165.343 330.396 165.744 330.396C166.144 330.396 166.47 330.073 166.473 329.672C166.45 328.151 165.685 326.738 164.424 325.888C164.343 325.83 164.258 325.777 164.17 325.729C163.823 325.531 163.381 325.649 163.179 325.994C162.978 326.339 163.092 326.783 163.435 326.988Z" fill="#1C1F34"/>
<path d="M87.5381 278.096C84.9155 277.868 82.509 280.11 81.2483 282.155C80.3644 283.658 79.713 285.286 79.3167 286.985L80.2633 287.113C79.9653 281.179 79.1158 275.191 77.2053 269.548C76.0391 266.104 74.4697 262.417 71.8281 259.831C70.4162 258.448 68.2094 257.216 66.387 258.62C65.5257 259.372 64.9155 260.371 64.6388 261.483C64.1799 263.143 63.9685 264.862 64.0116 266.585C64.0062 272.575 65.4754 278.589 67.1527 284.298C67.442 285.283 67.7434 286.264 68.057 287.242L68.8624 286.771C66.0856 284.127 62.9509 281.889 59.5509 280.123C57.1254 278.894 54.4426 277.834 51.699 277.689C50.1051 277.606 48.093 277.916 47.3179 279.523C46.3921 281.442 47.624 283.8 48.6394 285.411C49.8173 287.209 51.1736 288.883 52.6877 290.408C54.8869 292.658 57.2198 294.773 59.6735 296.741L60.0143 295.916C57.1045 295.846 54.1992 296.182 51.3814 296.913C49.236 297.436 47.2179 298.388 45.4481 299.712C44.2197 300.689 43.1626 302.023 42.9964 303.635C42.8281 305.266 43.7092 306.751 44.8523 307.838C47.0922 309.967 50.224 311.084 53.1304 311.925V310.993C50.09 311.47 46.7278 312.634 45.1488 315.501C44.2865 317.178 44.0426 319.106 44.46 320.946C44.5334 321.349 44.6428 321.745 44.7869 322.129L45.5923 321.658C44.0276 319.964 41.8603 318.956 39.5601 318.853C36.394 318.75 32.3946 320.776 31.5807 324.072C31.3958 324.748 31.3768 325.459 31.5254 326.144L32.2333 325.598C29.5744 324.41 25.3839 323.585 23.2681 326.167C22.2711 327.384 22.0103 329.002 22 330.534C22.0093 330.794 22.2223 331 22.4819 331C22.7415 331 22.9545 330.794 22.9638 330.534C22.9781 328.369 23.6666 326.163 25.9821 325.609C27.5409 325.235 29.2377 325.58 30.735 326.063C30.9999 326.148 31.2627 326.241 31.5221 326.342C31.6014 326.373 31.6802 326.405 31.7589 326.438C31.8041 326.456 31.6405 326.386 31.7468 326.433C31.9165 326.525 32.1244 326.509 32.2774 326.391C32.4304 326.273 32.4999 326.075 32.4547 325.887C32.4222 325.795 32.4068 325.698 32.4095 325.601C32.384 325.287 32.3947 324.97 32.4414 324.658C32.6519 323.55 33.2438 322.552 34.1138 321.837C36.6237 319.578 40.3091 319.224 43.2004 320.966C43.8345 321.338 44.4107 321.802 44.9107 322.342C45.2181 322.688 45.8952 322.323 45.7162 321.871C44.5999 319.054 45.3641 315.666 47.8916 313.885C49.5056 312.747 51.462 312.227 53.3865 311.925C53.8796 311.847 53.8094 311.115 53.3865 310.992C50.8677 310.263 48.2368 309.337 46.1515 307.69C45.024 306.799 43.9343 305.548 43.9379 304.027C43.9412 302.665 44.8253 301.514 45.8082 300.661C47.3593 299.417 49.153 298.513 51.0737 298.007C53.98 297.181 56.9945 296.802 60.0141 296.883C60.4028 296.888 60.6882 296.33 60.3549 296.058C56.7519 293.117 53.1124 289.962 50.34 286.191C49.2411 284.697 47.5731 282.34 48.0265 280.401C48.1465 279.836 48.5138 279.356 49.0265 279.094C49.7197 278.764 50.483 278.609 51.2496 278.643C53.6894 278.651 56.1361 279.559 58.3132 280.59C61.9354 282.355 65.2639 284.67 68.1808 287.455C68.3373 287.604 68.5727 287.631 68.759 287.522C68.9452 287.414 69.0378 287.195 68.9863 286.985C67.0888 281.039 65.4105 274.854 65.0372 268.593C64.8871 266.745 64.9594 264.885 65.2525 263.054C65.4065 261.907 65.83 260.813 66.4883 259.862C66.9102 259.264 67.6067 258.923 68.3362 258.957C68.713 258.993 69.0809 259.093 69.4238 259.254C69.8802 259.479 70.3059 259.761 70.6902 260.095C73.1856 262.233 74.6987 265.529 75.8273 268.545C77.747 273.676 78.705 279.156 79.1384 284.603C79.2049 285.439 79.2585 286.276 79.2993 287.113C79.3067 287.351 79.4839 287.548 79.7184 287.58C79.9529 287.611 80.176 287.469 80.2459 287.242C80.9535 284.455 82.202 281.394 84.7846 279.853C85.6026 279.319 86.562 279.043 87.538 279.063C88.1558 279.117 88.1522 278.15 87.538 278.096H87.5381Z" fill="#4C4C4C" fill-opacity="0.32"/>
<path d="M82.9761 318.068C82.6392 317.014 82.2228 315.986 81.7301 314.993C80.9382 313.367 79.9102 311.633 78.3495 310.62C76.8613 309.585 74.8153 309.874 73.6804 311.28C72.5568 312.787 72.926 314.974 73.3756 316.652C73.7515 318.056 74.2781 319.416 74.9464 320.709L75.5005 319.996C73.2982 319.108 70.3597 318.731 68.2102 319.916C67.2904 320.423 66.7344 321.287 67.1284 322.323C67.5727 323.249 68.2583 324.041 69.1147 324.619C69.7245 325.1 70.3702 325.535 71.0464 325.92V325.083C69.0963 326.335 67.877 328.699 69.342 330.784C69.6998 331.293 70.5508 330.809 70.1892 330.294C69.4614 329.354 69.4896 328.041 70.2572 327.132C70.6103 326.657 71.045 326.247 71.5415 325.92C71.6894 325.831 71.7796 325.673 71.7796 325.502C71.7796 325.33 71.6894 325.172 71.5415 325.083C70.3181 324.463 69.2374 323.6 68.3672 322.548C67.8911 321.899 67.8094 321.297 68.5577 320.839C69.7798 320.09 71.3425 320.062 72.7238 320.271C73.5856 320.393 74.4298 320.615 75.2394 320.932C75.6684 321.105 75.9682 320.556 75.7935 320.219C75.3302 319.311 74.9392 318.368 74.6243 317.399C74.1235 315.893 73.5715 313.984 74.1591 312.428C74.7219 310.937 76.4933 310.617 77.769 311.404C79.1385 312.248 80.0332 313.801 80.7369 315.19C81.2549 316.198 81.6873 317.247 82.0297 318.326C82.2145 318.921 83.162 318.667 82.9759 318.068L82.9761 318.068Z" fill="#4C4C4C" fill-opacity="0.32"/>
<path d="M224.172 172.002L224.158 178.04C224.153 180.549 223.906 183.222 224.802 185.613C225.367 187.12 226.172 188.559 226.872 190.005L230.416 197.325L232.728 202.099C233.136 202.944 234.394 202.205 233.987 201.364L228.581 190.198C227.875 188.74 227.158 187.287 226.463 185.824C225.423 183.633 225.609 181.249 225.614 178.899L225.63 172.002C225.632 171.064 224.174 171.062 224.172 172.002Z" fill="#1C1F34"/>
<path d="M244.224 110.053V101.543C245.797 100.834 246.978 99.8929 247.513 98.7283C250.15 92.9905 247.513 72.04 247.513 72.04H222.847C222.847 72.04 219.124 92.689 222.847 98.7283C224.109 100.775 227.045 102.092 230.478 102.718L230.452 117.343L237.499 116.371" fill="#FC7272"/>
<path d="M244.952 110.053V101.542L244.591 102.172C246.07 101.493 247.538 100.485 248.208 98.9459C248.544 98.1381 248.784 97.2934 248.922 96.4294C249.284 94.1359 249.448 91.8156 249.413 89.494C249.388 84.7282 249.114 79.967 248.595 75.2296C248.487 74.1653 248.375 73.101 248.242 72.0395C248.232 71.6411 247.911 71.3205 247.513 71.3105H222.847C222.52 71.313 222.233 71.531 222.144 71.8458C221.539 75.2067 221.118 78.6131 220.815 82.0132C220.54 84.8329 220.428 87.6662 220.481 90.4988C220.544 92.8681 220.705 95.3734 221.527 97.6182C222.018 99.0071 222.924 100.211 224.122 101.068C225.908 102.364 228.141 103.022 230.284 103.42L229.749 102.717L229.726 115.51L229.723 117.342C229.728 117.568 229.835 117.779 230.015 117.916C230.194 118.053 230.427 118.101 230.646 118.045L237.692 117.073C238.079 116.964 238.306 116.565 238.202 116.177C238.086 115.795 237.692 115.571 237.305 115.667L230.258 116.639L231.181 117.342L231.203 104.549L231.207 102.717C231.204 102.39 230.986 102.104 230.672 102.014C228.831 101.672 226.972 101.152 225.371 100.153C224.74 99.777 224.181 99.2911 223.72 98.7185C223.558 98.5034 223.415 98.2753 223.291 98.0365C223.241 97.9416 223.193 97.8455 223.147 97.7481C223.128 97.7085 223.11 97.6682 223.092 97.6282C223.073 97.5875 223.055 97.5466 223.038 97.5055C223.063 97.5652 223.066 97.5709 223.046 97.5227C222.195 95.4294 222.034 93.1717 221.953 90.9433C221.877 88.1976 221.963 85.4497 222.213 82.7143C222.406 80.3752 222.688 77.9397 223.001 75.7298C223.167 74.5621 223.341 73.3941 223.55 72.2332L222.847 72.7684H247.513L246.784 72.0394C247.139 74.869 247.395 77.7143 247.601 80.5582C247.948 85.3511 248.253 90.2761 247.664 95.0617C247.555 96.0235 247.353 96.9725 247.061 97.8954C247.03 97.9888 246.995 98.0813 246.961 98.1737C246.948 98.2095 246.933 98.2447 246.919 98.2802C246.857 98.438 246.971 98.1728 246.906 98.3104C246.741 98.6721 246.522 99.0064 246.256 99.3018C245.57 99.9922 244.754 100.54 243.855 100.912C243.63 101.041 243.492 101.282 243.494 101.542V110.052C243.494 110.991 244.952 110.992 244.952 110.052L244.952 110.053Z" fill="#1C1F34"/>
<path d="M230.517 84.6466C230.63 84.5743 230.749 84.5098 230.871 84.4536C230.903 84.438 230.936 84.4232 230.969 84.4079C231.102 84.3458 230.953 84.3926 230.943 84.4178C230.954 84.3887 231.122 84.3482 231.153 84.337C231.344 84.2688 231.538 84.2123 231.736 84.1679C231.843 84.1439 231.95 84.125 232.058 84.1066C232.199 84.0826 231.99 84.1093 232.083 84.104C232.147 84.1004 232.212 84.0914 232.277 84.0871C232.532 84.0717 232.789 84.0762 233.043 84.1007C233.118 84.1073 232.981 84.0869 233.109 84.1087C233.185 84.1217 233.26 84.1353 233.336 84.1515C233.48 84.1824 233.623 84.2207 233.763 84.2654C234.056 84.3595 234.337 84.4875 234.6 84.6466C234.947 84.845 235.389 84.7267 235.591 84.3814C235.793 84.0362 235.679 83.5928 235.336 83.3877C234.168 82.7026 232.789 82.4712 231.462 82.7377C230.866 82.8469 230.296 83.0674 229.781 83.3877C229.441 83.5967 229.326 84.0362 229.52 84.3851C229.725 84.7293 230.169 84.8456 230.517 84.6466H230.517Z" fill="#1C1F34"/>
<path d="M221.949 84.4526C221.799 84.5211 221.824 84.4984 221.96 84.452C222.132 84.3935 222.304 84.3384 222.481 84.2943C223.001 84.168 223.536 84.114 224.071 84.134C225.02 84.1292 225.863 84.7398 226.154 85.6432C226.419 86.5228 226.057 87.5178 225.65 88.2993C225.362 88.8515 225.01 89.3683 224.602 89.8393C224.335 90.0668 224.144 90.3708 224.055 90.7103C224.011 90.9566 224.015 91.2091 224.067 91.4538C224.362 92.6543 225.719 92.7324 226.73 92.6152C227.127 92.6035 227.447 92.2839 227.459 91.8862C227.456 91.4846 227.131 91.1596 226.73 91.1572C226.462 91.1939 226.193 91.2094 225.923 91.2037C225.834 91.2001 225.767 91.1942 225.686 91.1832C225.664 91.1804 225.446 91.127 225.562 91.1603C225.529 91.151 225.384 91.0365 225.489 91.1266C225.378 91.0311 225.57 91.1338 225.459 91.075C225.493 91.1516 225.498 91.1487 225.473 91.0661L225.482 91.1218C225.491 91.053 225.494 90.9835 225.49 90.9142L225.302 91.2359C226.893 89.5271 228.634 86.6223 227.136 84.3319C225.871 82.3987 223.161 82.3014 221.213 83.1935C220.868 83.3987 220.751 83.8428 220.951 84.1909C221.16 84.5307 221.6 84.6459 221.949 84.4524L221.949 84.4526Z" fill="#1C1F34"/>
<path d="M228.659 94.8758C229.506 94.8278 230.315 94.5118 230.97 93.9733C231.242 93.7437 231.463 93.4603 231.62 93.141C231.714 92.9696 231.74 92.7691 231.693 92.5792C231.615 92.2966 231.376 92.0881 231.085 92.0501C230.794 92.0121 230.509 92.152 230.361 92.4051C230.301 92.5296 230.228 92.6478 230.145 92.7581L230.259 92.6105C230.144 92.7567 230.012 92.8882 229.865 93.002L230.013 92.888C229.819 93.0338 229.609 93.1546 229.385 93.2477L229.559 93.1742C229.258 93.299 228.941 93.3842 228.618 93.4278L228.812 93.4017C228.761 93.4084 228.71 93.4148 228.659 93.4178C228.397 93.416 228.155 93.5545 228.023 93.7809C227.892 94.0072 227.892 94.2865 228.023 94.5128C228.155 94.7391 228.397 94.8777 228.659 94.8758H228.659Z" fill="#1C1F34"/>
<path d="M240.839 89.5542C240.968 89.0738 241.125 88.6013 241.308 88.1391C241.333 88.0399 241.371 87.9448 241.423 87.8567C241.419 87.8603 241.347 88.0321 241.395 87.923C241.405 87.899 241.416 87.8748 241.426 87.8509C241.45 87.7963 241.474 87.7419 241.499 87.6877C241.591 87.4871 241.689 87.2891 241.796 87.0961C241.899 86.9075 242.013 86.7248 242.136 86.5489C242.152 86.5272 242.265 86.3777 242.179 86.4872C242.093 86.5968 242.208 86.4531 242.225 86.4329C242.289 86.3569 242.356 86.2842 242.427 86.2151C242.467 86.1765 242.511 86.1419 242.551 86.1037C242.623 86.0352 242.385 86.2113 242.543 86.1114C242.583 86.0867 242.62 86.0607 242.661 86.038C242.678 86.0281 242.697 86.0194 242.714 86.0096C242.79 85.9666 242.813 86.0066 242.647 86.0345C242.688 86.0277 242.73 86.0045 242.771 85.9938C242.789 85.9889 242.809 85.9863 242.827 85.9806C242.936 85.9458 242.755 85.995 242.731 85.9909C242.779 85.9933 242.827 85.9918 242.875 85.9862C243.04 85.9824 242.688 85.9485 242.857 85.9833C243.245 86.0903 243.646 85.8624 243.753 85.4742C243.86 85.0859 243.632 84.6844 243.244 84.5774C242.12 84.3447 241.283 85.1581 240.728 86.0368C240.251 86.8336 239.875 87.6868 239.609 88.5765C239.546 88.7717 239.485 88.9682 239.433 89.1667C239.329 89.554 239.557 89.9529 239.943 90.0595C240.33 90.1661 240.73 89.9404 240.839 89.5543L240.839 89.5542Z" fill="#1C1F34"/>
<circle cx="223.627" cy="86.9397" r="0.866411" fill="#1C1F34"/>
<path d="M224.129 86.9396C224.129 86.9638 224.127 86.9878 224.126 87.0118C224.124 87.0795 224.125 86.9885 224.131 86.9855C224.118 87.0224 224.109 87.0603 224.104 87.0989C224.094 87.1196 224.086 87.1414 224.081 87.1638C224.078 87.1568 224.121 87.0838 224.09 87.1393C224.067 87.1792 224.045 87.2176 224.02 87.2561C223.979 87.3187 224.065 87.2149 224.028 87.2445C224.015 87.2577 224.002 87.2716 223.99 87.2862C223.98 87.297 223.969 87.3075 223.958 87.3177L223.941 87.3328C223.911 87.3575 223.919 87.3527 223.962 87.3184C223.941 87.3187 223.886 87.3698 223.867 87.3802C223.854 87.3876 223.84 87.3939 223.827 87.4014C223.767 87.4362 223.906 87.3789 223.819 87.4047C223.782 87.4158 223.746 87.428 223.708 87.4359C223.639 87.4503 223.707 87.4208 223.723 87.4359C223.703 87.435 223.683 87.4365 223.664 87.4403C223.623 87.442 223.583 87.4389 223.543 87.437C223.49 87.4345 223.636 87.456 223.558 87.4383C223.535 87.4331 223.513 87.4285 223.49 87.4222C223.468 87.4159 223.446 87.4079 223.424 87.4009C223.374 87.3849 223.444 87.3933 223.448 87.4112C223.445 87.4004 223.364 87.3668 223.348 87.3569C223.332 87.3469 223.318 87.3343 223.301 87.325C223.259 87.3009 223.367 87.3857 223.313 87.3327C223.284 87.2985 223.252 87.2662 223.219 87.2359C223.234 87.2344 223.263 87.2998 223.235 87.2559C223.222 87.2369 223.209 87.2186 223.198 87.1991C223.19 87.1861 223.182 87.1728 223.175 87.1594L223.165 87.1391C223.148 87.1038 223.151 87.1119 223.174 87.1636C223.18 87.1469 223.143 87.0735 223.138 87.0539C223.135 87.0387 223.131 87.0235 223.128 87.0082C223.112 86.9361 223.134 87.0943 223.127 86.9994C223.125 86.9633 223.125 86.927 223.126 86.8908C223.129 86.8524 223.153 86.8103 223.124 86.8932C223.128 86.878 223.131 86.8626 223.133 86.8471C223.141 86.8092 223.154 86.7731 223.165 86.7361C223.19 86.6599 223.125 86.8083 223.165 86.7392C223.176 86.7195 223.186 86.6989 223.198 86.6793C223.207 86.6631 223.218 86.6477 223.228 86.6317C223.265 86.5734 223.239 86.6445 223.219 86.6425C223.246 86.6169 223.272 86.5896 223.297 86.5608C223.314 86.5448 223.356 86.5301 223.311 86.5456C223.262 86.5625 223.314 86.5441 223.329 86.5339C223.37 86.5149 223.41 86.4926 223.448 86.4671C223.447 86.4724 223.361 86.4979 223.424 86.4776C223.446 86.4704 223.468 86.4625 223.49 86.4562C223.505 86.452 223.52 86.4483 223.535 86.4449C223.547 86.4422 223.618 86.4375 223.556 86.4392C223.491 86.4411 223.57 86.4392 223.579 86.4386C223.599 86.4375 223.619 86.4371 223.639 86.4374C223.659 86.4377 223.679 86.4396 223.699 86.4402C223.777 86.4428 223.627 86.4228 223.696 86.4402C223.742 86.4516 223.786 86.4635 223.83 86.4777C223.902 86.5007 223.778 86.4442 223.817 86.4722C223.838 86.4871 223.865 86.4965 223.887 86.5097C223.9 86.5175 223.913 86.5256 223.925 86.534C223.938 86.5425 223.95 86.5511 223.962 86.5602C223.918 86.5259 223.911 86.521 223.941 86.5457L224.021 86.6254C224.076 86.6811 223.977 86.5563 224.02 86.6224C224.032 86.6415 224.045 86.6598 224.057 86.6794C224.068 86.6989 224.078 86.7194 224.089 86.7392C224.124 86.7997 224.066 86.6644 224.089 86.7362C224.103 86.7808 224.115 86.8246 224.126 86.8701C224.139 86.9213 224.108 86.8599 224.124 86.8432C224.122 86.8753 224.124 86.9075 224.129 86.9392C224.128 87.0703 224.197 87.192 224.31 87.2579C224.424 87.3238 224.564 87.3238 224.677 87.2579C224.79 87.192 224.859 87.0703 224.858 86.9392C224.851 86.4188 224.524 85.9568 224.035 85.7787C223.558 85.6108 223.026 85.7525 222.696 86.1358C222.34 86.5489 222.299 87.1472 222.594 87.6056C222.89 88.064 223.452 88.2729 223.975 88.1189C224.499 87.9648 224.858 87.4846 224.858 86.9391C224.856 86.7392 224.693 86.5782 224.494 86.5782C224.294 86.5782 224.131 86.7392 224.129 86.9391L224.129 86.9396Z" fill="#1C1F34"/>
<circle cx="231.788" cy="86.9397" r="0.866411" fill="#1C1F34"/>
<path d="M232.29 86.9397C232.289 86.9639 232.288 86.9878 232.287 87.0118C232.284 87.0796 232.285 86.9885 232.291 86.9855C232.279 87.0224 232.27 87.0603 232.264 87.0989C232.254 87.1196 232.246 87.1414 232.241 87.1638C232.238 87.1568 232.281 87.0838 232.25 87.1393C232.227 87.1792 232.205 87.2176 232.18 87.2561C232.139 87.3187 232.225 87.2149 232.189 87.2446C232.175 87.2577 232.162 87.2716 232.151 87.2862C232.14 87.297 232.129 87.3075 232.118 87.3177L232.101 87.3328C232.072 87.3575 232.079 87.3527 232.123 87.3184C232.102 87.3187 232.046 87.3698 232.028 87.3802C232.015 87.3876 232.001 87.3939 231.988 87.4014C231.927 87.4362 232.066 87.3789 231.98 87.4047C231.943 87.4158 231.906 87.428 231.868 87.4359C231.799 87.4503 231.867 87.4208 231.883 87.4359C231.863 87.435 231.843 87.4365 231.824 87.4403C231.783 87.442 231.744 87.4389 231.703 87.437C231.651 87.4345 231.796 87.456 231.718 87.4383C231.695 87.4331 231.673 87.4285 231.65 87.4222C231.628 87.4159 231.606 87.4079 231.584 87.4009C231.535 87.3849 231.604 87.3933 231.608 87.4112C231.605 87.4004 231.524 87.3669 231.508 87.3569C231.493 87.3469 231.478 87.3343 231.461 87.325C231.419 87.3009 231.527 87.3857 231.473 87.3327C231.444 87.2985 231.413 87.2662 231.379 87.2359C231.395 87.2344 231.423 87.2998 231.395 87.2559C231.382 87.2369 231.369 87.2186 231.358 87.1991C231.35 87.1861 231.343 87.1729 231.335 87.1594L231.325 87.1391C231.309 87.1038 231.311 87.1119 231.334 87.1636C231.34 87.1469 231.303 87.0735 231.298 87.0539C231.295 87.0387 231.292 87.0235 231.288 87.0082C231.272 86.9361 231.294 87.0943 231.287 86.9994C231.285 86.9633 231.285 86.927 231.287 86.8908C231.289 86.8524 231.314 86.8103 231.284 86.8932C231.288 86.878 231.291 86.8627 231.293 86.8471C231.301 86.8092 231.314 86.7731 231.326 86.7361C231.35 86.6599 231.285 86.8083 231.325 86.7392C231.336 86.7195 231.346 86.6989 231.358 86.6793C231.367 86.6631 231.378 86.6477 231.388 86.6317C231.425 86.5734 231.4 86.6445 231.379 86.6425C231.407 86.6169 231.433 86.5896 231.457 86.5608C231.474 86.5448 231.516 86.5301 231.471 86.5456C231.422 86.5625 231.474 86.5441 231.489 86.5339C231.53 86.5149 231.57 86.4926 231.608 86.4672C231.607 86.4724 231.521 86.4979 231.584 86.4776C231.606 86.4704 231.628 86.4625 231.65 86.4562C231.665 86.452 231.68 86.4483 231.695 86.4449C231.707 86.4422 231.779 86.4375 231.716 86.4392C231.651 86.4411 231.73 86.4392 231.739 86.4386C231.759 86.4375 231.779 86.4371 231.799 86.4374C231.82 86.4377 231.839 86.4396 231.86 86.4402C231.937 86.4428 231.787 86.4228 231.856 86.4402C231.902 86.4516 231.946 86.4635 231.99 86.4777C232.063 86.5007 231.938 86.4442 231.977 86.4722C231.998 86.4871 232.025 86.4965 232.047 86.5097C232.06 86.5175 232.073 86.5256 232.085 86.534C232.098 86.5425 232.11 86.5511 232.122 86.5602C232.078 86.5259 232.071 86.521 232.101 86.5457C232.127 86.5722 232.154 86.5987 232.181 86.6254C232.236 86.6811 232.137 86.5563 232.18 86.6225C232.192 86.6415 232.205 86.6598 232.217 86.6794C232.229 86.6989 232.238 86.7194 232.249 86.7392C232.284 86.7997 232.226 86.6644 232.249 86.7362C232.263 86.7809 232.275 86.8246 232.286 86.8701C232.299 86.9213 232.268 86.8599 232.284 86.8432C232.282 86.8753 232.284 86.9075 232.289 86.9392C232.289 87.1405 232.452 87.3037 232.654 87.3037C232.855 87.3037 233.018 87.1405 233.018 86.9392C233.012 86.4188 232.684 85.9568 232.195 85.7787C231.718 85.6108 231.187 85.7525 230.857 86.1358C230.5 86.5489 230.459 87.1472 230.754 87.6056C231.05 88.064 231.612 88.2729 232.136 88.1189C232.659 87.9648 233.018 87.4846 233.018 86.9391C233.018 86.7378 232.855 86.5746 232.654 86.5746C232.452 86.5746 232.289 86.7378 232.289 86.9391L232.29 86.9397Z" fill="#1C1F34"/>
<path d="M150.377 340.12H189.995C191.823 340.12 193.665 340.187 195.491 340.12C195.516 340.12 195.542 340.12 195.568 340.12C196.506 340.12 196.507 338.662 195.568 338.662H155.949C154.121 338.662 152.28 338.596 150.453 338.662C150.428 338.663 150.402 338.662 150.377 338.662C149.438 338.662 149.437 340.12 150.377 340.12Z" fill="#1C1F34"/>
<path d="M225.488 146.007L188.562 145.147C189.233 142.557 193.699 132.447 194.063 129.03C194.607 123.915 194.581 119.291 194.099 116.184L230.391 117.343L233.881 111.43C234.918 109.673 236.807 108.595 238.847 108.595H244.06V105.957C246.836 105.957 249.319 107.682 250.288 110.284L250.518 111.313C250.661 111.952 250.506 112.622 250.097 113.133C249.688 113.644 249.069 113.941 248.414 113.941H243.088" fill="#2A2726"/>
<path d="M225.488 145.277L221.819 145.191L213.007 144.986L202.343 144.738L193.119 144.523L190.075 144.452C189.593 144.416 189.11 144.405 188.627 144.419C188.605 144.419 188.583 144.419 188.562 144.417L189.265 145.34C189.641 144.06 190.087 142.801 190.601 141.57C191.3 139.745 192.014 137.927 192.693 136.094C193.321 134.401 193.943 132.696 194.41 130.951C194.979 128.827 195.048 126.574 195.139 124.389C195.298 121.585 195.185 118.772 194.803 115.99L194.1 116.913L197.703 117.028L206.358 117.304L216.834 117.639L225.9 117.928C227.37 117.975 228.858 118.096 230.329 118.069C230.349 118.069 230.37 118.071 230.391 118.071C230.65 118.071 230.889 117.934 231.02 117.71L234.23 112.272C234.915 111.112 235.765 110.118 237.077 109.642C238.215 109.229 239.424 109.323 240.613 109.323H244.06C244.46 109.318 244.783 108.995 244.789 108.594V105.957L244.06 106.685C245.564 106.687 247.011 107.259 248.108 108.287C248.66 108.808 249.108 109.429 249.432 110.116C249.605 110.538 249.728 110.98 249.798 111.43C250.019 112.455 249.251 113.207 248.262 113.211C247.365 113.215 246.468 113.211 245.572 113.211H243.088C242.15 113.211 242.148 114.669 243.088 114.669C244.852 114.669 246.62 114.705 248.383 114.669C249.223 114.667 250.021 114.302 250.572 113.669C251.124 113.036 251.375 112.195 251.262 111.363C251.065 109.962 250.446 108.654 249.489 107.611C248.09 106.096 246.122 105.233 244.06 105.228C243.66 105.233 243.337 105.556 243.331 105.957V108.594L244.06 107.866H240.962C239.763 107.866 238.499 107.768 237.324 108.047C235.562 108.49 234.059 109.634 233.162 111.214C232.571 112.212 231.981 113.211 231.393 114.211L229.761 116.974L230.391 116.613L226.788 116.498L218.133 116.222L207.656 115.888L198.59 115.598C197.121 115.551 195.632 115.43 194.162 115.457C194.141 115.457 194.12 115.455 194.1 115.455C193.874 115.459 193.662 115.567 193.525 115.746C193.388 115.926 193.341 116.159 193.397 116.378C193.714 118.736 193.82 121.119 193.713 123.496C193.672 124.959 193.581 126.421 193.448 127.878C193.416 128.232 193.382 128.586 193.344 128.94C193.34 128.978 193.305 129.246 193.331 129.067C193.32 129.14 193.309 129.213 193.296 129.286C193.242 129.595 193.173 129.902 193.097 130.207C192.21 133.767 190.731 137.195 189.415 140.61C188.817 142.028 188.298 143.477 187.859 144.952C187.802 145.171 187.849 145.405 187.986 145.585C188.123 145.765 188.336 145.872 188.562 145.875L192.231 145.961L201.044 146.166L211.708 146.414L220.932 146.629C222.423 146.663 223.932 146.77 225.424 146.733C225.445 146.733 225.467 146.734 225.489 146.735C226.427 146.757 226.427 145.299 225.489 145.277L225.488 145.277Z" fill="#1C1F34"/>
<path d="M188.696 145.116C189.942 145.248 191.347 142.491 192.462 138.187L186.469 137.505C186.65 141.972 187.445 144.983 188.696 145.116Z" fill="#1C1F34"/>
<path d="M188.696 145.845C189.867 145.939 190.704 144.688 191.193 143.802C192.071 142.084 192.734 140.263 193.165 138.381C193.22 138.162 193.173 137.93 193.036 137.75C192.899 137.571 192.688 137.463 192.462 137.459L186.469 136.776C186.067 136.778 185.742 137.104 185.74 137.505C185.821 139.436 185.963 141.441 186.528 143.3C186.864 144.403 187.418 145.676 188.696 145.845C189.097 145.843 189.423 145.518 189.425 145.116C189.415 144.718 189.094 144.397 188.696 144.387C188.924 144.417 188.78 144.389 188.729 144.38C188.61 144.356 188.835 144.442 188.767 144.397C188.734 144.381 188.703 144.363 188.672 144.343C188.549 144.242 188.791 144.462 188.672 144.345C188.612 144.285 188.552 144.227 188.496 144.162C188.379 144.029 188.576 144.289 188.475 144.131C188.448 144.089 188.42 144.047 188.393 144.004C188.133 143.557 187.945 143.072 187.836 142.566C187.44 140.907 187.226 139.21 187.198 137.505L186.469 138.234L192.462 138.917L191.759 137.994C191.374 139.662 190.805 141.282 190.063 142.824C189.846 143.286 189.564 143.713 189.224 144.093C189.186 144.132 188.944 144.339 189.091 144.23C189.022 144.281 188.947 144.32 188.876 144.367C188.769 144.44 188.977 144.339 188.901 144.36C188.874 144.368 188.825 144.398 188.795 144.392C188.651 144.364 188.962 144.431 188.82 144.391C188.779 144.386 188.737 144.385 188.695 144.387C188.294 144.391 187.969 144.715 187.966 145.116C187.974 145.516 188.296 145.837 188.696 145.845Z" fill="#1C1F34"/>
<path d="M230.453 102.798C232.089 103.221 233.791 103.336 235.47 103.138L230.453 102.798Z" fill="#2A2726"/>
<path d="M230.259 103.501C232.018 103.981 233.857 104.097 235.663 103.841C236.05 103.732 236.277 103.332 236.172 102.945C236.057 102.563 235.663 102.339 235.276 102.435C234.709 102.506 234.137 102.53 233.567 102.508C233.298 102.501 233.03 102.485 232.763 102.462C232.632 102.45 232.501 102.437 232.371 102.422C232.309 102.415 232.247 102.407 232.185 102.399C232.051 102.382 232.352 102.425 232.13 102.392C231.63 102.324 231.134 102.225 230.646 102.095C230.258 101.988 229.857 102.216 229.75 102.604C229.643 102.992 229.87 103.394 230.259 103.501L230.259 103.501Z" fill="#1C1F34"/>
<path d="M144.307 82.7047C144.91 73.9122 145.274 69.1242 145.274 63.9823C145.274 58.8404 149.014 58.0813 150.254 63.1804C151.439 71.4047 150.263 85.8179 150.263 85.8179" fill="#FC7272"/>
<path d="M145.035 82.7043C145.335 78.3415 145.669 73.9788 145.867 69.6098C145.942 67.9442 145.991 66.2773 146.001 64.61C145.956 63.6772 146.057 62.7431 146.301 61.8416C146.395 61.5432 146.532 61.2598 146.707 60.9999C146.833 60.8166 146.996 60.6617 147.186 60.5452C147.207 60.5324 147.398 60.455 147.249 60.5094C147.309 60.4876 147.369 60.4718 147.431 60.4559C147.62 60.4069 147.29 60.4508 147.485 60.4487C147.548 60.448 147.61 60.4474 147.674 60.4527C147.516 60.4394 147.806 60.4911 147.86 60.5099C147.976 60.5636 148.086 60.6293 148.189 60.7059C148.691 61.1828 149.065 61.7794 149.274 62.4398C149.545 63.3088 149.706 64.2085 149.752 65.1177C149.837 66.0146 149.897 66.9136 149.942 67.8133C150.131 71.6064 150.068 75.4124 149.915 79.2056C149.826 81.4107 149.713 83.6175 149.534 85.8174C149.458 86.7527 150.916 86.7477 150.992 85.8174C151.509 79.912 151.649 73.9795 151.411 68.0562C151.368 67.1131 151.307 66.1706 151.221 65.2304C151.176 64.2411 151.023 63.2597 150.765 62.3035C150.303 60.8688 149.297 58.9871 147.548 58.9893C145.861 58.9913 144.971 60.7821 144.705 62.2124C144.565 63.1789 144.509 64.1558 144.539 65.132C144.529 66.0082 144.51 66.8841 144.481 67.7599C144.318 72.7474 143.919 77.7268 143.577 82.7042C143.513 83.6407 144.971 83.6368 145.035 82.7042L145.035 82.7043Z" fill="#1C1F34"/>
<path d="M139.379 81.8473C139.982 73.0548 140.346 68.2668 140.346 63.1249C140.346 57.9829 144.086 57.2239 145.326 62.323C146.511 70.5472 145.16 85.8175 145.16 85.8175" fill="#FC7272"/>
<path d="M140.108 81.8471C140.415 77.3738 140.761 72.9004 140.954 68.4203C141.028 66.6908 141.069 64.9605 141.075 63.2296C141.035 62.3333 141.185 61.4386 141.518 60.6052C141.636 60.3305 141.805 60.0804 142.016 59.8679C142.15 59.7336 142.319 59.6402 142.504 59.5987C142.693 59.5498 142.363 59.5937 142.558 59.5915C142.621 59.5908 142.683 59.5902 142.746 59.5955C142.599 59.5831 142.929 59.648 142.996 59.6764C142.857 59.6178 143.066 59.7208 143.074 59.7262C143.137 59.7669 143.202 59.8032 143.262 59.8488C143.266 59.8524 143.465 60.04 143.539 60.1218C144.123 60.838 144.503 61.699 144.637 62.6134C144.88 64.3259 145.011 66.0524 145.03 67.7819C145.159 71.5982 145.055 75.4225 144.866 79.235C144.756 81.4306 144.624 83.6274 144.431 85.8174C144.434 86.2187 144.759 86.5433 145.16 86.5464C145.559 86.5383 145.881 86.2166 145.889 85.8174C146.06 83.8839 146.18 81.9449 146.284 80.0068C146.496 76.037 146.618 72.0543 146.498 68.0793C146.454 66.1871 146.311 64.2984 146.07 62.4212C145.855 60.8427 144.873 58.5837 143.13 58.1928C141.439 57.8136 140.311 59.3637 139.906 60.8013C139.672 61.8023 139.574 62.8303 139.615 63.8574C139.609 64.7486 139.592 65.6396 139.565 66.5305C139.434 70.922 139.101 75.3065 138.799 79.6886C138.749 80.4081 138.699 81.1277 138.65 81.8472C138.586 82.7837 140.044 82.7797 140.108 81.8472L140.108 81.8471Z" fill="#1C1F34"/>
<path d="M139.571 86.5465C139.571 86.5465 140.941 75.0463 139.756 66.822C138.516 61.7229 134.776 62.482 134.776 67.6239C134.776 71.8804 134.913 72.6223 134.468 81.3792H134.1C131.753 81.3792 129.851 83.2815 129.851 85.6281V95.4731" fill="#FC7272"/>
<path d="M140.3 86.547C140.535 84.573 140.68 82.5852 140.793 80.6012C141.068 76.6238 141.039 72.6312 140.704 68.6583C140.529 66.8481 140.259 64.9027 138.941 63.5264C138 62.5444 136.589 62.3226 135.523 63.2395C134.291 64.2995 134.05 66.1903 134.047 67.7113C134.045 68.7948 134.06 69.8782 134.065 70.9616C134.081 74.437 133.915 77.9097 133.739 81.3797L134.468 80.6507C132.641 80.6507 130.996 81.3335 129.947 82.885C129.349 83.8515 129.062 84.9777 129.122 86.1125V95.4736C129.122 96.4117 130.58 96.4133 130.58 95.4736V86.7823C130.531 86.0966 130.57 85.4074 130.696 84.7314C130.919 83.8821 131.452 83.1471 132.19 82.6707C132.877 82.2615 133.67 82.0659 134.468 82.1087C134.868 82.101 135.19 81.7791 135.197 81.3797C135.356 78.2425 135.514 75.1018 135.525 71.9599C135.528 71.0176 135.517 70.0753 135.511 69.133C135.502 67.8001 135.375 66.3482 135.948 65.1049C136.047 64.8764 136.179 64.6642 136.341 64.4753C136.374 64.4401 136.602 64.234 136.517 64.2978C136.574 64.2551 136.872 64.1081 136.751 64.152C136.804 64.1326 137.09 64.081 136.925 64.0954C136.979 64.0907 137.268 64.1123 137.109 64.0858C137.327 64.106 137.532 64.1984 137.692 64.3484C138.15 64.778 138.499 65.3107 138.71 65.9022C139.01 66.7697 139.189 67.6748 139.24 68.5914C139.566 72.3691 139.609 76.1659 139.37 79.9501C139.257 82.1513 139.102 84.3573 138.842 86.547C138.844 86.9486 139.17 87.2737 139.571 87.276C139.97 87.2667 140.291 86.9457 140.3 86.547H140.3Z" fill="#1C1F34"/>
<path d="M128.879 87.0329C129.482 78.2404 129.847 75.7239 129.847 70.5819C129.847 65.44 133.587 64.6809 134.827 69.7801C136.012 78.0043 135.44 80.4076 135.44 80.4076H136.436C137.501 80.4076 138.519 80.8478 139.249 81.624C139.978 82.4001 140.355 83.4432 140.289 84.5065L139.702 93.994L144.249 97.0149" fill="#FC7272"/>
<path d="M129.608 87.0326C129.829 83.8171 130.097 80.605 130.322 77.3898C130.484 75.0714 130.542 72.7602 130.577 70.4373C130.572 69.7088 130.69 68.9846 130.925 68.295C131.006 68.0769 131.11 67.8677 131.234 67.6705C131.281 67.5826 131.341 67.5024 131.412 67.4325C131.446 67.3957 131.482 67.3608 131.517 67.3248C131.521 67.3208 131.691 67.1774 131.588 67.2549C131.669 67.1948 131.756 67.1426 131.847 67.0992C131.95 67.0499 131.746 67.1336 131.852 67.0988C131.903 67.0823 131.953 67.0688 132.004 67.0555C132.038 67.0467 132.143 67.0397 131.996 67.0526C132.037 67.049 132.079 67.0471 132.121 67.047C132.121 67.047 132.324 67.0616 132.213 67.0477C132.121 67.0361 132.315 67.0729 132.338 67.0797C132.381 67.092 132.423 67.1053 132.465 67.1215C132.582 67.1668 132.321 67.0406 132.512 67.148C132.599 67.1947 132.683 67.2473 132.762 67.3055C132.929 67.4534 133.08 67.6174 133.215 67.7953C134.223 69.1951 134.288 71.038 134.475 72.6894C134.638 74.1285 134.768 75.5726 134.824 77.02C134.866 77.8851 134.86 78.7518 134.806 79.6162C134.798 79.7341 134.786 79.8517 134.775 79.9694C134.771 80.0163 134.762 80.0632 134.759 80.1103C134.752 80.2101 134.802 79.8752 134.768 80.0372C134.756 80.0956 134.751 80.1554 134.737 80.2136C134.68 80.4327 134.727 80.6657 134.864 80.8457C135.002 81.0258 135.214 81.1329 135.44 81.1364C136.296 81.1364 137.139 81.0817 137.919 81.5079C138.927 82.0558 139.559 83.1082 139.568 84.2561C139.569 85.3476 139.44 86.4509 139.373 87.5395L139.054 92.6914C139.028 93.1085 138.972 93.5359 138.976 93.9541C138.981 94.5098 139.543 94.7616 139.949 95.0314L143.881 97.6439C144.665 98.1646 145.396 96.9024 144.617 96.385L140.07 93.3641L140.431 93.9935L140.793 88.1401L140.99 84.9586C141.124 83.8014 140.848 82.6338 140.21 81.6591C139.583 80.7603 138.66 80.1115 137.601 79.8272C136.89 79.6859 136.164 79.6358 135.44 79.6781L136.143 80.6008C136.321 79.5885 136.373 78.558 136.298 77.5328C136.262 76.0583 136.139 74.5862 135.981 73.1202C135.775 71.2214 135.686 69.2046 134.745 67.4979C134.187 66.4861 133.187 65.4762 131.934 65.6014C130.667 65.7278 129.888 66.8392 129.501 67.955C129.002 69.3962 129.13 70.9626 129.1 72.4628C129.076 73.6389 129.026 74.8143 128.955 75.9883C128.734 79.6725 128.403 83.3502 128.15 87.0323C128.086 87.9688 129.544 87.9648 129.608 87.0323L129.608 87.0326Z" fill="#1C1F34"/>
<path d="M138.599 93.2859L172.042 115.48L189.373 116.033L194.099 116.184C194.581 119.291 194.607 123.915 194.063 129.029C193.642 132.868 192.903 136.664 191.854 140.38C162.564 138.999 152.238 130.449 152.238 130.449L120.208 104.188L116.243 91.4061L119.402 78.4629" fill="#FC7272"/>
<path d="M138.231 93.9152L140.313 95.2968L145.588 98.7973L152.706 103.521L160.24 108.521L166.755 112.845L170.913 115.604C171.158 115.767 171.398 115.953 171.654 116.096C171.995 116.286 172.526 116.224 172.904 116.236L180.348 116.474L188.146 116.723L192.979 116.877L194.099 116.913L193.396 116.378C193.773 119.253 193.858 122.158 193.65 125.05C193.479 128.343 193.072 131.619 192.433 134.854C192.08 136.648 191.663 138.43 191.151 140.186L191.853 139.651C186.066 139.406 180.301 138.771 174.598 137.751C170.583 137.034 166.626 136.023 162.759 134.727C162.025 134.477 161.295 134.213 160.571 133.935C160.24 133.808 159.911 133.678 159.583 133.545C159.433 133.483 159.282 133.421 159.132 133.359C159.09 133.341 159.048 133.324 159.006 133.306C159.018 133.311 159.101 133.346 159.024 133.313C158.942 133.279 158.861 133.244 158.779 133.209C157.762 132.771 156.758 132.299 155.777 131.783C154.741 131.251 153.745 130.644 152.797 129.967C152.576 129.805 152.92 130.073 152.763 129.941C152.734 129.916 152.704 129.892 152.674 129.868C152.316 129.577 151.961 129.283 151.604 128.99L146.525 124.826L139.064 118.709L131.071 112.156L124.373 106.664L120.883 103.803L120.724 103.672L120.911 103.994L117.436 92.7926L116.946 91.2125V91.6L119.711 80.2702L120.105 78.6569C120.327 77.7456 118.922 77.3567 118.699 78.2693L116.125 88.8178L115.613 90.9162C115.523 91.2165 115.524 91.5363 115.614 91.8364L117.178 96.8784L119.103 103.085C119.301 103.723 119.392 104.457 119.925 104.894L125.95 109.833L136.508 118.49L146.744 126.882C148.395 128.236 150.036 129.604 151.698 130.944C152.655 131.684 153.678 132.335 154.753 132.888C158.161 134.665 161.746 136.078 165.45 137.105C171.957 138.998 178.698 140.062 185.439 140.671C187.574 140.864 189.712 141.01 191.854 141.109C192.181 141.106 192.467 140.888 192.557 140.574C194.435 134.108 195.32 127.394 195.182 120.662C195.157 119.098 195.03 117.538 194.802 115.99C194.714 115.675 194.427 115.457 194.099 115.455L187.137 115.233L175.363 114.857L172.042 114.751L172.41 114.85L169.08 112.64L161.083 107.334L151.45 100.94L143.087 95.3905C141.74 94.4965 140.418 93.5133 139.024 92.6939C139.004 92.6825 138.986 92.6687 138.967 92.6563C138.183 92.136 137.452 93.3982 138.231 93.9152H138.231Z" fill="#1C1F34"/>
<path d="M124.381 84.1618C124.984 75.3693 125.348 70.5813 125.348 65.4393C125.348 60.2974 129.088 59.5383 130.328 64.6375C131.513 72.8617 130.337 87.275 130.337 87.275" fill="#FC7272"/>
<path d="M125.11 84.1623C125.409 79.7995 125.744 75.4368 125.941 71.0678C126.016 69.4021 126.066 67.7353 126.075 66.068C126.03 65.1352 126.132 64.2011 126.376 63.2996C126.47 63.0012 126.606 62.7178 126.781 62.4579C126.907 62.2746 127.071 62.1197 127.261 62.0032C127.281 61.9904 127.473 61.913 127.323 61.9674C127.383 61.9456 127.444 61.9298 127.505 61.9139C127.694 61.8649 127.365 61.9088 127.559 61.9067C127.623 61.906 127.685 61.9054 127.748 61.9107C127.59 61.8974 127.88 61.9491 127.934 61.9679C128.051 62.0216 128.161 62.0872 128.263 62.1638C128.766 62.6408 129.139 63.2374 129.348 63.8978C129.62 64.7668 129.78 65.6665 129.826 66.5757C129.911 67.4726 129.971 68.3718 130.016 69.2713C130.205 73.0644 130.142 76.8704 129.99 80.6635C129.901 82.8687 129.787 85.0755 129.608 87.2755C129.532 88.2107 130.99 88.2057 131.066 87.2755C131.583 81.37 131.723 75.4375 131.486 69.5142C131.442 68.5711 131.381 67.6286 131.295 66.6884C131.25 65.6991 131.097 64.7177 130.839 63.7615C130.378 62.3268 129.371 60.4451 127.622 60.4473C125.936 60.4493 125.046 62.2401 124.78 63.6703C124.639 64.6369 124.583 65.6138 124.613 66.59C124.604 67.4661 124.584 68.3421 124.555 69.2179C124.392 74.2054 123.993 79.1848 123.651 84.1622C123.587 85.0987 125.045 85.0948 125.109 84.1622L125.11 84.1623Z" fill="#1C1F34"/>
<path d="M119.453 83.3053C120.056 74.5128 120.421 69.7248 120.42 64.5829C120.42 59.441 124.16 58.6819 125.4 63.781C126.585 72.0053 125.234 87.2755 125.234 87.2755" fill="#FC7272"/>
<path d="M120.182 83.3051C120.489 78.8318 120.835 74.3584 121.028 69.8782C121.103 68.1488 121.143 66.4186 121.15 64.6876C121.109 63.7913 121.26 62.8966 121.592 62.0632C121.711 61.7885 121.88 61.5384 122.09 61.3259C122.224 61.1917 122.393 61.0983 122.578 61.0567C122.767 61.0078 122.437 61.0516 122.632 61.0495C122.695 61.0488 122.757 61.0482 122.82 61.0536C122.673 61.0411 123.003 61.106 123.07 61.1345C122.931 61.0758 123.14 61.1789 123.149 61.1842C123.211 61.225 123.276 61.2613 123.336 61.3069C123.34 61.3105 123.539 61.498 123.614 61.5798C124.198 62.296 124.577 63.157 124.711 64.0714C124.954 65.7839 125.086 67.5104 125.105 69.2399C125.234 73.0562 125.13 76.8805 124.94 80.693C124.831 82.8886 124.699 85.0854 124.505 87.2754C124.508 87.6768 124.833 88.0013 125.234 88.0044C125.633 87.9963 125.955 87.6746 125.963 87.2754C126.134 85.3419 126.254 83.4029 126.358 81.4648C126.571 77.495 126.692 73.5123 126.572 69.5373C126.528 67.6451 126.385 65.7564 126.144 63.8791C125.929 62.3007 124.947 60.0417 123.204 59.6508C121.513 59.2716 120.385 60.8217 119.98 62.2594C119.746 63.2603 119.648 64.2883 119.689 65.3154C119.683 66.2066 119.667 67.0976 119.64 67.9885C119.509 72.38 119.175 76.7644 118.873 81.1466C118.823 81.8661 118.774 82.5857 118.724 83.3052C118.66 84.2417 120.118 84.2378 120.182 83.3052L120.182 83.3051Z" fill="#1C1F34"/>
<path d="M119.645 88.0045C119.645 88.0045 121.015 76.5043 119.83 68.2801C118.59 63.1809 114.85 63.94 114.85 69.0819C114.85 73.3384 114.553 84.6494 114.108 93.4063C113.944 96.6143 115.249 99.7225 117.655 101.851L124.38 107.799" fill="#FC7272"/>
<path d="M120.374 88.0041C120.866 83.8052 121.087 79.579 121.037 75.3516C121.02 73.739 120.957 72.1258 120.815 70.5191C120.677 68.9502 120.523 67.4024 119.749 65.998C119.231 65.0591 118.38 64.1695 117.25 64.0944C116.225 64.0262 115.37 64.7353 114.888 65.5835C114.226 66.7507 114.125 68.1213 114.121 69.4339C114.117 70.5211 114.101 71.6082 114.082 72.6952C114.027 75.7754 113.948 78.8552 113.844 81.9344C113.733 85.3841 113.596 88.833 113.435 92.281C113.353 93.9714 113.354 95.602 113.857 97.2383C114.351 98.8442 115.194 100.321 116.325 101.564C117.385 102.636 118.501 103.651 119.669 104.604L123.611 108.09L123.865 108.315C124.566 108.934 125.6 107.907 124.896 107.284L118.359 101.502C116.448 99.8787 115.211 97.6017 114.889 95.1153C114.706 93.5159 114.915 91.8621 114.986 90.2594C115.06 88.5979 115.126 86.9362 115.187 85.2742C115.386 79.8289 115.497 74.385 115.58 68.9372C115.596 67.8538 115.79 66.5775 116.52 65.8248C116.619 65.7177 116.742 65.6355 116.88 65.5849C116.746 65.6437 116.971 65.5648 117.007 65.5555C117.041 65.5467 117.146 65.5397 116.999 65.5526C117.051 65.5469 117.103 65.5452 117.155 65.5476C117.265 65.5611 117.372 65.587 117.476 65.6246C117.629 65.7031 117.77 65.8042 117.893 65.9243C118.788 66.7846 119.099 68.1353 119.235 69.3181C119.413 70.8599 119.507 72.4109 119.552 73.9619C119.669 78.5701 119.466 83.1809 118.943 87.7609C118.934 87.842 118.925 87.9232 118.916 88.0041C118.918 88.4057 119.243 88.7308 119.645 88.7331C120.043 88.7238 120.364 88.4028 120.374 88.0041L120.374 88.0041Z" fill="#1C1F34"/>
<path d="M135.554 77.0674C135.554 77.0674 135.44 84.2956 134.954 87.6976L135.554 77.0674Z" fill="#FC7272"/>
<path d="M134.825 77.0673C134.77 80.5229 134.724 84.1427 134.251 87.5037C134.158 87.8901 134.381 88.2825 134.76 88.4004C135.148 88.5046 135.548 88.2777 135.657 87.8913C136.159 84.3216 136.226 80.668 136.283 77.0673C136.298 76.1287 134.84 76.1285 134.825 77.0673Z" fill="#1C1F34"/>
<path d="M245.518 182.466C245.518 182.466 248.434 192.672 254.751 191.214C255.453 201.391 256.729 211.52 258.572 221.554C260.329 231.301 264.19 240.547 269.886 248.649L306.024 300.076" fill="white"/>
<path d="M245.166 182.563C245.536 183.8 246.026 184.998 246.629 186.14C247.632 188.082 249.019 190.084 251.018 191.099C252.201 191.698 253.556 191.864 254.849 191.565L254.387 191.214C254.881 199.037 255.814 206.829 257.028 214.571C257.568 218.016 258.099 221.481 258.883 224.881C259.699 228.418 260.797 231.884 262.165 235.246C264.156 240.118 266.692 244.749 269.724 249.051L272.374 252.822L277.542 260.177L284.212 269.668L291.368 279.851L297.994 289.281L303.076 296.513C303.917 297.709 304.75 298.911 305.598 300.102C305.635 300.155 305.672 300.208 305.709 300.261C305.977 300.642 306.609 300.278 306.339 299.893L304.612 297.435L300.098 291.012L293.767 282.002L286.683 271.921L279.821 262.156L274.182 254.131L270.768 249.272C268.706 246.379 266.851 243.344 265.219 240.188C261.918 233.701 259.851 226.812 258.605 219.659C257.31 212.22 256.263 204.733 255.579 197.212C255.397 195.215 255.243 193.216 255.116 191.214C255.114 191.101 255.06 190.995 254.97 190.927C254.88 190.858 254.764 190.835 254.655 190.862C250.288 191.821 247.565 186.975 246.276 183.56C246.128 183.168 245.985 182.772 245.869 182.369C245.811 182.182 245.614 182.074 245.424 182.126C245.235 182.179 245.121 182.372 245.166 182.563V182.563Z" fill="#1C1F34"/>
<path d="M224.984 185.746L202.334 223.676C197.074 232.485 193.595 242.242 192.094 252.392L183.04 313.655" fill="white"/>
<path d="M224.67 185.562L220.869 191.926L212.658 205.678L204.818 218.806C203.069 221.734 201.262 224.639 199.695 227.67C195.692 235.426 192.998 243.791 191.724 252.425C191.378 254.757 191.034 257.089 190.69 259.42L188.579 273.703L186.096 290.504L183.915 305.256L182.742 313.191L182.688 313.559C182.62 314.018 183.323 314.216 183.391 313.752L184.212 308.199L186.202 294.738L188.672 278.023L190.943 262.661L192.309 253.419C193.22 246.991 194.889 240.693 197.283 234.658C199.165 229.989 201.594 225.627 204.167 221.319L211.217 209.513L219.744 195.233L225.036 186.371L225.299 185.93C225.393 185.757 225.332 185.542 225.162 185.442C224.993 185.343 224.775 185.396 224.67 185.563L224.67 185.562Z" fill="#1C1F34"/>
<path d="M224.086 79.2152C230.323 79.4228 237.513 79.1597 237.513 79.1597L237.707 89.0687C237.707 85.8496 240.258 81.4912 242.565 81.4912C244.872 81.4912 246.645 82.2684 246.645 85.5714C246.645 87.7577 244.812 91.5685 243.536 92.5659L247.811 98.0062C247.811 98.0062 256.943 85.1828 256.943 76.6339L256.941 71.4708C256.94 67.5743 253.992 64.3098 250.116 63.9122L247.462 63.64C245.212 59.5906 240.944 57.0791 236.312 57.0791H229.479C225.418 57.0764 221.598 59.011 219.198 62.287C215.319 62.9204 212.471 66.271 212.47 70.201C212.47 70.201 210.188 78.7526 224.086 79.2152Z" fill="#D90016"/>
<path d="M224.086 79.9445C228.557 80.0904 233.043 80.0518 237.513 79.889L236.784 79.16L236.954 87.8287L236.978 89.069C236.992 89.4618 237.314 89.7733 237.707 89.7733C238.1 89.7733 238.423 89.4618 238.436 89.069C238.499 87.4015 239.016 85.783 239.933 84.3886C240.31 83.7538 240.796 83.1898 241.368 82.7223C241.783 82.3666 242.321 82.1881 242.867 82.2254C243.983 82.2615 245.025 82.538 245.544 83.5508C246.223 84.8745 245.897 86.5289 245.446 87.8633C245.148 88.7425 244.764 89.5902 244.299 90.394C243.978 91.0198 243.544 91.5814 243.021 92.0509C242.744 92.339 242.744 92.7937 243.021 93.0818L247.295 98.522C247.611 98.9239 248.199 98.7124 248.44 98.3745C249.451 96.9538 250.377 95.4664 251.268 93.9691C253.147 90.8862 254.743 87.6398 256.038 84.2695C256.688 82.5865 257.166 80.8416 257.463 79.0619C257.621 77.908 257.691 76.7436 257.671 75.579C257.67 72.7727 258.008 69.781 256.525 67.2574C255.376 65.3128 253.492 63.9137 251.298 63.3769C250.031 63.139 248.749 62.9835 247.462 62.9114L248.091 63.2725C246.757 60.8886 244.735 58.9634 242.288 57.7491C240.323 56.8047 238.167 56.3262 235.988 56.3505H231.25C229.556 56.3505 227.887 56.3367 226.225 56.7462C223.15 57.5294 220.443 59.3584 218.568 61.9194L219.004 61.5843C215.934 62.1307 213.379 64.2556 212.282 67.175C212.007 67.921 211.835 68.7012 211.772 69.4937C211.755 69.6863 211.749 69.8784 211.742 70.0715C211.742 70.0657 211.768 69.9807 211.765 70.0146C211.764 70.0343 211.754 70.0535 211.752 70.0732C211.712 70.3661 211.651 70.655 211.626 70.9507C211.387 73.728 212.836 76.2605 215.152 77.7401C217.765 79.4099 221.053 79.8367 224.086 79.9446C225.025 79.978 225.023 78.52 224.086 78.4866C221.872 78.4078 219.626 78.1363 217.548 77.3264C216.286 76.8749 215.164 76.1007 214.294 75.0808C214.255 75.0336 214.216 74.9859 214.179 74.9375C214.264 75.047 214.159 74.909 214.131 74.869C214.053 74.7579 213.977 74.6459 213.905 74.5306C213.771 74.3115 213.649 74.0853 213.54 73.853C213.521 73.8129 213.446 73.6334 213.519 73.8108C213.499 73.7632 213.479 73.7156 213.462 73.6674C213.421 73.5574 213.38 73.4476 213.344 73.336C213.277 73.1248 213.22 72.9102 213.174 72.693C213.153 72.5907 213.135 72.4879 213.117 72.3848C213.076 72.1436 213.121 72.4822 213.098 72.2402C213.081 72.0572 213.066 71.8743 213.062 71.6904C213.056 71.3983 213.068 71.1061 213.097 70.8153C213.109 70.6835 213.127 70.6439 213.093 70.8281C213.102 70.7807 213.106 70.7325 213.114 70.685C213.127 70.6168 213.14 70.5488 213.153 70.4806C213.252 69.9517 213.215 69.4066 213.317 68.8736C213.731 66.7149 215.085 64.8529 217.011 63.7941C217.494 63.5301 218.006 63.3231 218.537 63.1773C218.799 63.1049 219.067 63.0673 219.329 63.001C219.711 62.9044 219.888 62.5623 220.122 62.2757C222.41 59.4466 225.855 57.8044 229.493 57.8087C231.765 57.7999 234.038 57.7999 236.31 57.8087C239.924 57.8091 243.346 59.4322 245.633 62.2301C246.015 62.6979 246.36 63.1949 246.665 63.7165C246.867 64.0599 247.032 64.3184 247.462 64.3696C247.519 64.3765 247.577 64.3812 247.634 64.3873C249.113 64.5445 250.684 64.5571 252.068 65.1604C254.069 66.0402 255.54 67.8098 256.04 69.9382C256.34 71.2286 256.212 72.6477 256.213 73.9629C256.213 75.231 256.271 76.5183 256.162 77.7834C255.939 79.798 255.452 81.7744 254.713 83.6619C253.972 85.6501 253.103 87.5883 252.113 89.4645C250.719 92.1517 249.162 94.7513 247.452 97.2489C247.363 97.3794 247.273 97.5098 247.181 97.6388L248.326 97.4912L244.052 92.0509V93.0818C244.639 92.5543 245.129 91.9275 245.5 91.2301C245.987 90.393 246.398 89.5138 246.728 88.6031C247.346 86.9208 247.686 84.9739 246.998 83.2536C246.368 81.6775 244.982 80.9542 243.355 80.7978C242.595 80.6901 241.821 80.8122 241.131 81.1484C240.4 81.5633 239.765 82.1295 239.271 82.8092C237.856 84.5969 237.053 86.791 236.978 89.0691H238.436L238.266 80.4004L238.242 79.1601C238.237 78.7595 237.913 78.436 237.513 78.4311C233.043 78.5939 228.557 78.6324 224.086 78.4866C223.148 78.456 223.149 79.914 224.086 79.9445Z" fill="#1C1F34"/>
<path d="M218.545 62.4258H226.844C228.299 62.4258 229.618 63.2828 230.209 64.6127" fill="#D90016"/>
<path d="M218.545 63.1548C221.291 63.1548 224.037 63.1381 226.782 63.1548C227.997 63.1468 229.098 63.8658 229.579 64.9807C229.784 65.326 230.229 65.4425 230.577 65.2422C230.916 65.0328 231.031 64.5938 230.838 64.2448C230.181 62.844 228.84 61.8886 227.301 61.7258C226.798 61.6877 226.293 61.678 225.789 61.6968H218.545C217.607 61.6968 217.605 63.1548 218.545 63.1548Z" fill="#1C1F34"/>
</svg>
