<svg width="208" height="59" viewBox="0 0 208 59" fill="none" xmlns="http://www.w3.org/2000/svg">
<path fill-rule="evenodd" clip-rule="evenodd" d="M5.02092 40.3934C1.71827 38.0478 0.0669701 34.8677 0.0669701 30.8532V30.3795L0 28.2145H10.5105V30.6504C10.5105 31.5525 11.1353 32.432 12.3849 33.289C13.6346 34.101 15.3529 34.5068 17.5398 34.5068C19.3696 34.5068 20.7309 34.2586 21.6235 33.7625C22.4268 33.2663 22.8285 32.6576 22.8285 31.9358C22.8285 31.0337 22.3152 30.2669 21.2887 29.6355C20.3515 29.0491 18.4993 28.282 15.7322 27.3347L11.5816 25.7787C10.4212 25.3727 9.08232 24.7187 7.56488 23.8166C5.95819 23.0047 4.70851 22.1251 3.81591 21.1779C2.87867 20.2307 2.07534 19.0804 1.40588 17.7272C0.691796 16.3739 0.334728 14.8401 0.334728 13.1261C0.334728 9.15664 1.85219 5.97687 4.88706 3.5862C7.92193 1.19553 11.8494 0 16.6695 0C21.6681 0 25.7741 1.26306 28.9875 3.78905C32.2009 6.26993 33.8075 9.5628 33.8075 13.6675V16.3062H23.364V13.8704C23.364 12.6976 22.8061 11.6601 21.6904 10.7579C20.5746 9.8558 18.9903 9.40473 16.9373 9.40473C15.2413 9.40473 13.9693 9.6755 13.1214 10.2168C12.2734 10.8032 11.8494 11.4798 11.8494 12.2466C11.8494 13.0585 12.318 13.7351 13.2553 14.2764C14.2371 14.8628 16.0669 15.6069 18.7448 16.5091L21.4896 17.524L24.3682 18.6743C25.8856 19.396 26.8898 19.9373 27.3808 20.2981C28.0056 20.7041 28.8759 21.3358 29.9917 22.1928C30.8396 22.9145 31.6207 23.7488 32.3348 24.696C32.8257 25.4629 33.3166 26.4551 33.8075 27.673C34.1646 28.8909 34.3431 30.1091 34.3431 31.327C34.3431 35.3415 32.8257 38.4311 29.7908 40.5962C26.7559 42.7614 22.7392 43.8441 17.7406 43.8441C12.5635 43.8441 8.32357 42.6938 5.02092 40.3934ZM37.0879 27.2673C37.0879 24.4707 37.802 21.8771 39.2301 19.4864C40.7029 17.0506 42.6667 15.111 45.1213 13.6675C47.576 12.2241 50.2761 11.5023 53.2217 11.5023C55.9442 11.5023 58.4435 12.0661 60.7197 13.1938V11.7728H69.3557L69.4226 43.0321H60.9205V41.2728C58.5551 42.4456 55.9888 43.0321 53.2217 43.0321C50.2761 43.0321 47.576 42.3102 45.1213 40.8668C42.6667 39.4234 40.7029 37.5063 39.2301 35.1157C37.802 32.6799 37.0879 30.064 37.0879 27.2673ZM58.5774 32.6124C59.113 32.0712 59.6039 31.4172 60.0502 30.6504C60.4965 29.8835 60.7197 29.2292 60.7197 28.6879V25.9141C60.7197 25.3728 60.4965 24.6962 60.0502 23.8843C59.6039 23.0724 59.113 22.4181 58.5774 21.9219C57.1046 20.4785 55.3194 19.757 53.2217 19.757C51.9498 19.757 50.6109 20.0953 49.4728 20.7719C48.3124 21.4936 47.3975 22.4183 46.7281 23.546C45.9247 24.9894 45.6123 26.5229 45.7908 28.1468C45.9247 29.0264 46.1255 29.8384 46.5272 30.5826C47.1966 31.9358 48.1785 32.9957 49.4728 33.7625C50.5886 34.4842 51.8382 34.8451 53.2217 34.8451C55.2747 34.8451 57.06 34.101 58.5774 32.6124ZM73.7071 43.0998L73.774 1.35321V0.812057H82.2761L82.41 43.0998H73.7071ZM162.678 43.0998L162.745 1.35321V0.812057H171.247L171.381 43.0998H162.678ZM175.598 43.2349V42.7615H184.301V43.2349C184.301 44.543 184.636 45.7612 185.305 46.8889C185.975 48.1067 186.934 49.0764 188.184 49.7981C189.322 50.4071 190.594 50.7453 191.933 50.7453C194.075 50.7002 195.816 49.9787 197.155 48.5804C198.538 47.1369 199.275 45.355 199.364 43.2349L199.431 39.8519C197.11 41.0698 194.566 41.6789 191.799 41.6789C188.987 41.6789 186.332 40.957 183.833 39.5136C181.378 38.1153 179.392 36.2435 177.874 33.8979C176.357 31.5524 175.598 29.0489 175.598 26.3876V11.6377H177.473C180.151 14.3441 181.69 15.9001 184.301 18.5389L184.368 26.5907C184.77 28.5754 185.618 30.2217 186.912 31.5298C188.206 32.7928 189.835 33.4242 191.799 33.4242C193.138 33.4242 194.388 33.0859 195.548 32.4093C196.708 31.7327 197.646 30.8305 198.36 29.7028C199.029 28.5752 199.364 27.3574 199.364 26.0493V18.6066C202.042 15.9002 203.515 14.3441 206.192 11.6377H208V43.2349C208 46.0767 207.286 48.6929 205.858 51.0836C204.43 53.4743 202.488 55.3913 200.033 56.8347C197.579 58.2782 194.834 59 191.799 59C188.854 59 186.131 58.2782 183.632 56.8347C181.177 55.3913 179.236 53.4516 177.807 51.0159C176.335 48.5801 175.598 45.9865 175.598 43.2349Z" fill="black"/>
<path fill-rule="evenodd" clip-rule="evenodd" d="M119.699 21.5836L106.176 13.6675C104.904 12.9233 103.364 12.9233 102.092 13.6675L88.502 21.5836C87.297 22.3279 86.4937 23.6813 86.4937 25.1698V43.0321H99.2803C96.6025 41.4082 94.7949 38.4313 94.7949 34.9806C94.7949 29.6354 99.2133 25.3052 104.569 25.5758C109.255 25.8465 113.406 29.7029 113.406 34.4391V43.0321H121.774V25.1698C121.774 23.6813 120.971 22.3279 119.699 21.5836ZM125.992 42.8292V43.3027H134.694V27.3347C134.694 26.0266 135.029 24.8088 135.699 23.6812C136.368 22.5535 137.283 21.6513 138.443 20.9747C139.559 20.3432 140.809 20.0276 142.192 20.0276C144.112 20.0276 145.785 20.6815 147.213 21.9896C148.641 23.2977 149.467 24.8991 149.69 26.7936C149.735 27.1544 149.735 27.4701 149.69 27.7408C149.69 28.0114 149.69 28.2369 149.69 28.4174L149.757 32.4093V43.2349L158.393 43.3027V27.0642C158.393 25.1246 157.969 23.2301 157.121 21.3808C156.229 19.5314 155.046 17.8851 153.573 16.4417C150.404 13.3293 146.611 11.7729 142.192 11.7729C139.47 11.7729 136.926 12.3593 134.561 13.5321V1.08264H126.059V1.62379L125.992 42.8292Z" fill="black"/>
</svg>
