<svg width="16" height="17" viewBox="0 0 16 17" fill="none" xmlns="http://www.w3.org/2000/svg">
<path d="M14 10.2812C15.0938 10.2812 16 11.1875 16 12.2812V14.7812C16 15.9062 15.0938 16.7812 14 16.7812H2C0.875 16.7812 0 15.9062 0 14.7812V12.2812C0 11.1875 0.875 10.2812 2 10.2812H6V11.7812H2C1.71875 11.7812 1.5 12.0312 1.5 12.2812V14.7812C1.5 15.0625 1.71875 15.2812 2 15.2812H14C14.25 15.2812 14.5 15.0625 14.5 14.7812V12.2812C14.5 12.0312 14.25 11.7812 14 11.7812H10V10.2812H14ZM4.25 6.3125C3.96875 6.625 3.5 6.625 3.21875 6.3125C2.90625 6.03125 2.90625 5.5625 3.21875 5.25L7.46875 1C7.75 0.71875 8.21875 0.71875 8.5 1L12.75 5.25C13.0625 5.5625 13.0625 6.03125 12.75 6.3125C12.625 6.46875 12.4375 6.53125 12.25 6.53125C12.0312 6.53125 11.8438 6.46875 11.7188 6.3125L8.75 3.34375V11.7812C8.75 12.2188 8.40625 12.5312 8 12.5312C7.5625 12.5312 7.25 12.2188 7.25 11.7812V3.34375L4.25 6.3125ZM13.5 13.5312C13.5 13.9688 13.1562 14.2812 12.75 14.2812C12.3125 14.2812 12 13.9688 12 13.5312C12 13.125 12.3125 12.7812 12.75 12.7812C13.1562 12.7812 13.5 13.125 13.5 13.5312Z" fill="#FF5323"/>
</svg>
